<svg width="174" height="174" viewBox="0 0 174 174" fill="none" xmlns="http://www.w3.org/2000/svg">
    <circle cx="6.30435" cy="6.30435" r="6.30435" fill="#EEEEEE"/>
    <circle cx="6.30435" cy="46.652" r="6.30435" fill="#EEEEEE"/>
    <circle cx="6.30435" cy="86.9997" r="6.30435" fill="#EEEEEE"/>
    <circle cx="6.30435" cy="127.347" r="6.30435" fill="#EEEEEE"/>
    <circle cx="6.30435" cy="167.695" r="6.30435" fill="#EEEEEE"/>
    <circle cx="46.6522" cy="6.30435" r="6.30435" fill="#EEEEEE"/>
    <circle cx="46.6522" cy="46.652" r="6.30435" fill="#EEEEEE"/>
    <circle cx="46.6522" cy="86.9997" r="6.30435" fill="#EEEEEE"/>
    <circle cx="46.6522" cy="127.347" r="6.30435" fill="#EEEEEE"/>
    <circle cx="46.6522" cy="167.695" r="6.30435" fill="#EEEEEE"/>
    <circle cx="86.9999" cy="6.30435" r="6.30435" fill="#EEEEEE"/>
    <circle cx="86.9999" cy="46.652" r="6.30435" fill="#EEEEEE"/>
    <circle cx="86.9999" cy="86.9997" r="6.30435" fill="#EEEEEE"/>
    <circle cx="86.9999" cy="127.347" r="6.30435" fill="#EEEEEE"/>
    <circle cx="86.9999" cy="167.695" r="6.30435" fill="#EEEEEE"/>
    <circle cx="127.348" cy="6.30435" r="6.30435" fill="#EEEEEE"/>
    <circle cx="127.348" cy="46.652" r="6.30435" fill="#EEEEEE"/>
    <circle cx="127.348" cy="86.9997" r="6.30435" fill="#EEEEEE"/>
    <circle cx="127.348" cy="127.347" r="6.30435" fill="#EEEEEE"/>
    <circle cx="127.348" cy="167.695" r="6.30435" fill="#EEEEEE"/>
    <circle cx="167.696" cy="6.30435" r="6.30435" fill="#EEEEEE"/>
    <circle cx="167.696" cy="46.652" r="6.30435" fill="#EEEEEE"/>
    <circle cx="167.696" cy="86.9997" r="6.30435" fill="#EEEEEE"/>
    <circle cx="167.696" cy="127.347" r="6.30435" fill="#EEEEEE"/>
    <circle cx="167.696" cy="167.695" r="6.30435" fill="#EEEEEE"/>
</svg>
