<svg width="50" height="50" viewBox="0 0 50 50" fill="none" xmlns="http://www.w3.org/2000/svg">
<g clip-path="url(#clip0_1599_2682)">
<path d="M21.875 4.16797C25.2 4.16775 28.4578 5.10361 31.2757 6.86845C34.0935 8.63329 36.3576 11.1558 37.8088 14.1473C39.26 17.1388 39.8397 20.4785 39.4815 23.7841C39.1233 27.0896 37.8417 30.2276 35.7834 32.8388L43.3917 40.4471C43.7712 40.8401 43.9812 41.3663 43.9764 41.9126C43.9717 42.4588 43.7526 42.9813 43.3663 43.3676C42.9801 43.7539 42.4575 43.973 41.9113 43.9777C41.365 43.9824 40.8388 43.7725 40.4459 43.393L32.8375 35.7846C30.6197 37.5325 28.0161 38.7246 25.2438 39.2615C22.4716 39.7985 19.6111 39.6647 16.9011 38.8713C14.1911 38.0779 11.7101 36.648 9.66512 34.7007C7.62014 32.7535 6.07047 30.3455 5.14541 27.6775C4.22035 25.0096 3.94672 22.1591 4.34735 19.3639C4.74798 16.5687 5.81125 13.9098 7.44845 11.6091C9.08565 9.30842 11.2493 7.4326 13.7589 6.13816C16.2685 4.84373 19.0513 4.16821 21.875 4.16797ZM21.875 8.33464C18.2836 8.33464 14.8392 9.76134 12.2996 12.3009C9.76008 14.8405 8.33337 18.2848 8.33337 21.8763C8.33337 25.4678 9.76008 28.9122 12.2996 31.4517C14.8392 33.9913 18.2836 35.418 21.875 35.418C25.4665 35.418 28.9109 33.9913 31.4504 31.4517C33.99 28.9122 35.4167 25.4678 35.4167 21.8763C35.4167 18.2848 33.99 14.8405 31.4504 12.3009C28.9109 9.76134 25.4665 8.33464 21.875 8.33464ZM21.875 10.418C24.914 10.418 27.8285 11.6252 29.9773 13.774C32.1262 15.9229 33.3334 18.8374 33.3334 21.8763C33.3334 24.9152 32.1262 27.8297 29.9773 29.9786C27.8285 32.1274 24.914 33.3346 21.875 33.3346C18.8361 33.3346 15.9216 32.1274 13.7728 29.9786C11.6239 27.8297 10.4167 24.9152 10.4167 21.8763C10.4167 18.8374 11.6239 15.9229 13.7728 13.774C15.9216 11.6252 18.8361 10.418 21.875 10.418Z" fill="white"/>
</g>
<defs>
<clipPath id="clip0_1599_2682">
<rect width="50" height="50" fill="white"/>
</clipPath>
</defs>
</svg>
