<svg width="35" height="36" viewBox="0 0 35 36" fill="none" xmlns="http://www.w3.org/2000/svg">
<g clip-path="url(#clip0_1049_1152)">
<path fill-rule="evenodd" clip-rule="evenodd" d="M32.9672 6.8439C33.0388 6.41227 32.9926 5.96945 32.8334 5.5616C32.6741 5.15375 32.4076 4.79578 32.0617 4.52499C31.7159 4.2542 31.3032 4.0805 30.8667 4.02198C30.4303 3.96347 29.986 4.02228 29.5802 4.19229L1.50555 15.9337C-0.451464 16.7523 -0.551613 19.5638 1.50555 20.4117C3.54255 21.2556 5.60925 22.0269 7.70168 22.7241C9.61929 23.3536 11.7109 23.9358 13.3872 24.1005C13.8453 24.6452 14.4215 25.1703 15.0093 25.6497C15.9074 26.3836 16.9877 27.1386 18.1041 27.8626C20.3402 29.314 22.8209 30.7018 24.4923 31.6052C26.4903 32.6815 28.8824 31.4421 29.2404 29.2781L32.9672 6.8439ZM4.65287 18.1564L29.4833 7.77179L26.006 28.7106C24.3659 27.8251 22.0033 26.4993 19.8986 25.1328C18.9285 24.5141 17.9919 23.8451 17.0927 23.1286C16.8524 22.9336 16.6191 22.7302 16.3933 22.5187L22.8965 16.0609C23.2045 15.7551 23.3777 15.3403 23.3778 14.9077C23.378 14.4751 23.2051 14.0602 22.8973 13.7542C22.5894 13.4482 22.1718 13.2762 21.7363 13.2761C21.3008 13.2759 20.883 13.4476 20.575 13.7534L13.4545 20.826C12.2494 20.6727 10.5715 20.2291 8.72944 19.6257C7.35804 19.1719 5.99924 18.6815 4.65451 18.1548L4.65287 18.1564Z" fill="#232141"/>
</g>
<defs>
<clipPath id="clip0_1049_1152">
<rect width="35" height="35" fill="white" transform="translate(0 0.287109)"/>
</clipPath>
</defs>
</svg>
