<svg width="23" height="22" viewBox="0 0 23 22" fill="none" xmlns="http://www.w3.org/2000/svg">
<path d="M2.38397 0.917991C1.52415 0.507277 0.579508 1.29299 0.825043 2.21353L2.62504 8.93942C2.67015 9.10846 2.76393 9.26052 2.89473 9.37671C3.02553 9.49291 3.18758 9.56811 3.36076 9.59299L12.1858 10.8537C12.4411 10.8894 12.4411 11.2591 12.1858 11.2957L3.36165 12.5555C3.18847 12.5804 3.02642 12.6556 2.89562 12.7718C2.76483 12.888 2.67105 13.04 2.62594 13.2091L0.825043 19.9385C0.579508 20.8582 1.52415 21.6439 2.38397 21.2341L21.5786 12.0832C22.4259 11.6796 22.4259 10.4725 21.5786 10.068L2.38397 0.917991Z" fill="white"/>
</svg>
