<svg width="50" height="50" viewBox="0 0 50 50" fill="none" xmlns="http://www.w3.org/2000/svg">
<path d="M46.2158 24.6588L27.3486 5.80139L26.0839 4.53674C25.7958 4.2505 25.4061 4.08984 25 4.08984C24.5938 4.08984 24.2041 4.2505 23.916 4.53674L3.78414 24.6588C3.48888 24.9529 3.25553 25.3032 3.09787 25.689C2.94021 26.0747 2.86142 26.4882 2.86617 26.9049C2.8857 28.6237 4.31636 29.9957 6.03511 29.9957H8.11031V45.899H41.8896V29.9957H44.0087C44.8437 29.9957 45.6298 29.6686 46.2207 29.0778C46.5116 28.7878 46.7421 28.443 46.8988 28.0633C47.0555 27.6836 47.1354 27.2766 47.1337 26.8658C47.1337 26.0358 46.8066 25.2496 46.2158 24.6588ZM27.7343 42.3834H22.2656V32.4225H27.7343V42.3834ZM38.374 26.4801V42.3834H30.8593V31.2506C30.8593 30.1715 29.9853 29.2975 28.9062 29.2975H21.0937C20.0146 29.2975 19.1406 30.1715 19.1406 31.2506V42.3834H11.6259V26.4801H6.93844L25.0048 8.42835L26.1328 9.55628L43.0664 26.4801H38.374Z" fill="#232141"/>
</svg>
