<svg width="50" height="50" viewBox="0 0 50 50" fill="none" xmlns="http://www.w3.org/2000/svg">
<path fill-rule="evenodd" clip-rule="evenodd" d="M22.6562 7.03223C23.0877 7.03223 23.4375 7.38198 23.4375 7.81348V22.6572C23.4375 23.0887 23.0877 23.4385 22.6562 23.4385H7.8125C7.38101 23.4385 7.03125 23.0887 7.03125 22.6572V7.81348C7.03125 7.38198 7.38101 7.03223 7.8125 7.03223H22.6562ZM20.1172 10.3525H10.3516V20.1182H20.1172V10.3525ZM44.2057 14.6341C44.5108 14.9392 44.5108 15.4338 44.2057 15.7389L35.3668 24.5778C35.0618 24.8829 34.5671 24.8829 34.262 24.5778L25.4232 15.7389C25.1181 15.4338 25.1181 14.9392 25.4232 14.6341L34.2621 5.79521C34.5671 5.49014 35.0618 5.49014 35.3669 5.79521L44.2057 14.6341ZM40.0625 15.1865L34.8145 9.93848L29.5664 15.1865L34.8145 20.4346L40.0625 15.1865ZM22.6562 26.5635C23.0877 26.5635 23.4375 26.9133 23.4375 27.3447V42.1885C23.4375 42.62 23.0877 42.9697 22.6562 42.9697H7.8125C7.38101 42.9697 7.03125 42.62 7.03125 42.1885V27.3447C7.03125 26.9133 7.38101 26.5635 7.8125 26.5635H22.6562ZM20.1172 29.8838H10.3516V39.6494H20.1172V29.8838ZM42.1875 26.5635C42.619 26.5635 42.9688 26.9133 42.9688 27.3447V42.1885C42.9688 42.62 42.619 42.9697 42.1875 42.9697H27.3438C26.9123 42.9697 26.5625 42.62 26.5625 42.1885V27.3447C26.5625 26.9133 26.9123 26.5635 27.3438 26.5635H42.1875ZM39.6484 29.8838H29.8828V39.6494H39.6484V29.8838Z" fill="#232141"/>
</svg>
