<svg width="50" height="50" viewBox="0 0 50 50" fill="none" xmlns="http://www.w3.org/2000/svg">
<path d="M14.0625 20.5566C14.0625 21.1782 14.3094 21.7744 14.749 22.2139C15.1885 22.6535 15.7846 22.9004 16.4062 22.9004C17.0279 22.9004 17.624 22.6535 18.0635 22.2139C18.5031 21.7744 18.75 21.1782 18.75 20.5566C18.75 19.935 18.5031 19.3389 18.0635 18.8994C17.624 18.4598 17.0279 18.2129 16.4062 18.2129C15.7846 18.2129 15.1885 18.4598 14.749 18.8994C14.3094 19.3389 14.0625 19.935 14.0625 20.5566ZM31.25 20.5566C31.25 21.1782 31.4969 21.7744 31.9365 22.2139C32.376 22.6535 32.9721 22.9004 33.5938 22.9004C34.2154 22.9004 34.8115 22.6535 35.251 22.2139C35.6906 21.7744 35.9375 21.1782 35.9375 20.5566C35.9375 19.935 35.6906 19.3389 35.251 18.8994C34.8115 18.4598 34.2154 18.2129 33.5938 18.2129C32.9721 18.2129 32.376 18.4598 31.9365 18.8994C31.4969 19.3389 31.25 19.935 31.25 20.5566ZM25 3.125C12.9199 3.125 3.125 12.9199 3.125 25C3.125 37.0801 12.9199 46.875 25 46.875C37.0801 46.875 46.875 37.0801 46.875 25C46.875 12.9199 37.0801 3.125 25 3.125ZM37.8418 37.8418C36.1719 39.5117 34.2285 40.8203 32.0654 41.7383C29.834 42.6855 27.4561 43.1641 25 43.1641C22.5439 43.1641 20.166 42.6855 17.9297 41.7383C15.7699 40.8261 13.808 39.5028 12.1533 37.8418C10.4834 36.1719 9.1748 34.2285 8.25684 32.0654C7.31445 29.834 6.83594 27.4561 6.83594 25C6.83594 22.5439 7.31445 20.166 8.26172 17.9297C9.17387 15.7699 10.4972 13.808 12.1582 12.1533C13.8281 10.4834 15.7715 9.1748 17.9346 8.25684C20.166 7.31445 22.5439 6.83594 25 6.83594C27.4561 6.83594 29.834 7.31445 32.0703 8.26172C34.2301 9.17387 36.192 10.4972 37.8467 12.1582C39.5166 13.8281 40.8252 15.7715 41.7432 17.9346C42.6855 20.166 43.1641 22.5439 43.1641 25C43.1641 27.4561 42.6855 29.834 41.7383 32.0703C40.8272 34.2293 39.5037 36.1897 37.8418 37.8418ZM32.4219 26.0254H30.0732C29.8682 26.0254 29.6924 26.1816 29.6777 26.3867C29.4922 28.8037 27.4658 30.7129 25 30.7129C22.5342 30.7129 20.5029 28.8037 20.3223 26.3867C20.3076 26.1816 20.1318 26.0254 19.9268 26.0254H17.5781C17.5251 26.0253 17.4727 26.036 17.424 26.0569C17.3753 26.0777 17.3313 26.1083 17.2948 26.1466C17.2582 26.185 17.2299 26.2304 17.2114 26.2801C17.193 26.3297 17.1849 26.3826 17.1875 26.4355C17.4023 30.5518 20.8252 33.8379 25 33.8379C29.1748 33.8379 32.5977 30.5518 32.8125 26.4355C32.8151 26.3826 32.807 26.3297 32.7886 26.2801C32.7701 26.2304 32.7418 26.185 32.7052 26.1466C32.6687 26.1083 32.6247 26.0777 32.576 26.0569C32.5273 26.036 32.4749 26.0253 32.4219 26.0254Z" fill="#232141"/>
</svg>
