<svg width="50" height="50" viewBox="0 0 50 50" fill="none" xmlns="http://www.w3.org/2000/svg">
<path d="M46.2158 24.6569L26.1035 4.55929C25.9587 4.41419 25.7867 4.29907 25.5973 4.22053C25.408 4.14199 25.205 4.10156 25 4.10156C24.795 4.10156 24.592 4.14199 24.4027 4.22053C24.2133 4.29907 24.0413 4.41419 23.8965 4.55929L3.78418 24.6569C3.19824 25.2429 2.86621 26.0388 2.86621 26.8689C2.86621 28.5925 4.26758 29.9939 5.99121 29.9939H8.11035V44.3347C8.11035 45.1989 8.80859 45.8972 9.67285 45.8972H21.875V34.9597H27.3437V45.8972H40.3271C41.1914 45.8972 41.8896 45.1989 41.8896 44.3347V29.9939H44.0088C44.8389 29.9939 45.6348 29.6667 46.2207 29.0759C47.4365 27.8552 47.4365 25.8776 46.2158 24.6569Z" fill="#232141"/>
</svg>
