<svg width="1070" height="705" viewBox="0 0 1070 705" fill="none" xmlns="http://www.w3.org/2000/svg">
<path fill-rule="evenodd" clip-rule="evenodd" d="M604.906 359.581L604.961 359.531C605.823 358.741 607.195 357.483 608.997 357.955C610.839 358.437 613.668 360.695 615.786 362.99C618.91 366.373 620.469 369.952 620.177 373.064C620.005 374.898 619.198 376.439 617.84 377.517C616.678 378.442 614.523 379.201 610.852 377.566C608.552 376.541 606.126 374.754 604.196 372.664C601.866 370.14 599.419 367.42 600.183 365.333C600.614 364.156 601.075 363.537 602.271 362.231C603.254 361.158 604.047 360.368 604.906 359.581ZM604.971 356.009L598.012 363.158C597.424 363.762 596.623 363.756 595.61 362.798C592.286 359.653 590.498 354.406 594.237 351.874C597.777 349.477 602.858 351.931 604.706 353.848C605.545 354.716 605.609 355.354 604.971 356.009ZM601.92 398.086L601.975 398.036C602.838 397.246 604.21 395.989 606.012 396.46C607.853 396.942 610.682 399.2 612.801 401.496C615.924 404.878 617.483 408.457 617.192 411.569C617.019 413.403 616.212 414.944 614.854 416.022C613.692 416.947 611.537 417.706 607.866 416.071C605.567 415.046 603.14 413.259 601.21 411.169C598.88 408.645 596.434 405.925 597.198 403.839C597.628 402.661 598.089 402.042 599.285 400.736C600.269 399.663 601.062 398.873 601.92 398.086ZM601.985 394.514L595.027 401.663C594.439 402.267 593.638 402.261 592.625 401.303C589.3 398.158 587.513 392.912 591.251 390.38C594.791 387.982 599.872 390.436 601.721 392.353C602.56 393.222 602.623 393.86 601.985 394.514ZM648.584 398.036L648.528 398.086C647.67 398.873 646.877 399.663 645.893 400.736C644.698 402.042 644.237 402.661 643.806 403.839C643.042 405.925 645.488 408.645 647.819 411.169C649.749 413.259 652.175 415.046 654.475 416.071C658.146 417.706 660.3 416.947 661.462 416.022C662.82 414.944 663.628 413.403 663.8 411.569C664.092 408.457 662.533 404.878 659.409 401.496C657.29 399.2 654.461 396.942 652.62 396.46C650.818 395.989 649.446 397.246 648.584 398.036ZM641.635 401.663L648.594 394.514C649.232 393.86 649.168 393.222 648.329 392.353C646.481 390.436 641.4 387.982 637.859 390.38C634.121 392.912 635.909 398.158 639.233 401.303C640.246 402.261 641.047 402.267 641.635 401.663ZM642.449 440.817L642.504 440.767C643.366 439.977 644.739 438.719 646.541 439.191C648.382 439.673 651.211 441.931 653.33 444.226C656.453 447.609 658.012 451.188 657.721 454.3C657.548 456.134 656.741 457.675 655.383 458.753C654.221 459.678 652.066 460.437 648.395 458.802C646.096 457.777 643.669 455.99 641.739 453.9C639.409 451.376 636.963 448.656 637.727 446.57C638.157 445.392 638.618 444.773 639.814 443.467C640.798 442.394 641.591 441.604 642.449 440.817ZM642.514 437.245L635.556 444.394C634.968 444.998 634.167 444.992 633.154 444.034C629.829 440.889 628.042 435.642 631.78 433.111C635.32 430.713 640.401 433.167 642.25 435.084C643.089 435.952 643.152 436.591 642.514 437.245ZM693.166 449.923L693.11 449.974C692.252 450.76 691.459 451.551 690.475 452.624C689.279 453.929 688.818 454.548 688.388 455.726C687.624 457.813 690.07 460.533 692.4 463.056C694.331 465.147 696.757 466.934 699.057 467.958C702.727 469.593 704.882 468.834 706.044 467.91C707.402 466.832 708.21 465.29 708.382 463.457C708.674 460.344 707.115 456.766 703.991 453.383C701.872 451.087 699.043 448.829 697.202 448.348C695.4 447.876 694.028 449.133 693.166 449.923ZM686.217 453.55L693.175 446.402C693.814 445.747 693.75 445.109 692.911 444.241C691.062 442.323 685.982 439.869 682.441 442.267C678.703 444.799 680.491 450.045 683.815 453.19C684.828 454.148 685.629 454.155 686.217 453.55ZM683.756 488.341L683.826 488.313C684.913 487.886 686.643 487.206 688.157 488.295C689.704 489.407 691.539 492.533 692.698 495.439C694.406 499.721 694.585 503.623 693.202 506.424C692.386 508.073 691.083 509.222 689.43 509.74C688.015 510.185 685.733 510.118 682.889 507.271C681.108 505.486 679.48 502.945 678.425 500.299C677.15 497.105 675.837 493.685 677.295 492.012C678.117 491.067 678.768 490.655 680.351 489.866C681.652 489.219 682.674 488.766 683.756 488.341ZM685.092 485.029L676.044 489.199C675.28 489.552 674.534 489.258 673.93 487.999C671.949 483.866 672.153 478.325 676.547 477.307C680.707 476.342 684.575 480.462 685.616 482.916C686.09 484.029 685.922 484.648 685.092 485.029ZM727.956 503.197L727.886 503.225C726.804 503.65 725.781 504.103 724.48 504.751C722.898 505.539 722.246 505.951 721.424 506.896C719.966 508.569 721.279 511.989 722.554 515.183C723.61 517.829 725.237 520.371 727.018 522.155C729.862 525.002 732.145 525.069 733.559 524.624C735.212 524.106 736.516 522.958 737.331 521.308C738.714 518.507 738.536 514.605 736.827 510.323C735.668 507.418 733.833 504.291 732.286 503.179C730.772 502.09 729.043 502.77 727.956 503.197ZM720.174 504.083L729.221 499.913C730.051 499.532 730.219 498.913 729.746 497.801C728.704 495.346 724.837 491.226 720.676 492.191C716.282 493.209 716.079 498.751 718.06 502.883C718.664 504.142 719.409 504.436 720.174 504.083ZM713.701 544.938L713.771 544.911C714.857 544.484 716.587 543.804 718.101 544.893C719.648 546.005 721.483 549.131 722.642 552.037C724.351 556.319 724.529 560.221 723.146 563.022C722.331 564.671 721.027 565.82 719.374 566.337C717.959 566.783 715.677 566.716 712.833 563.868C711.052 562.084 709.425 559.543 708.369 556.897C707.094 553.702 705.781 550.283 707.239 548.609C708.061 547.665 708.713 547.253 710.295 546.464C711.596 545.817 712.618 545.364 713.701 544.938ZM715.036 541.627L705.989 545.797C705.224 546.15 704.478 545.856 703.875 544.597C701.894 540.464 702.097 534.923 706.491 533.905C710.652 532.94 714.519 537.059 715.56 539.514C716.034 540.627 715.866 541.246 715.036 541.627ZM755.313 563.224L755.243 563.252C754.161 563.677 753.138 564.13 751.837 564.778C750.255 565.566 749.603 565.978 748.781 566.923C747.323 568.596 748.636 572.016 749.911 575.21C750.967 577.856 752.594 580.398 754.375 582.182C757.219 585.029 759.502 585.096 760.916 584.651C762.569 584.133 763.873 582.984 764.688 581.335C766.071 578.534 765.893 574.632 764.184 570.35C763.025 567.444 761.19 564.318 759.643 563.206C758.129 562.117 756.4 562.797 755.313 563.224ZM747.531 564.11L756.578 559.94C757.408 559.559 757.576 558.94 757.103 557.828C756.061 555.373 752.194 551.253 748.033 552.218C743.639 553.236 743.436 558.778 745.417 562.91C746.021 564.169 746.766 564.463 747.531 564.11ZM740.969 618.616L741.021 618.561C741.827 617.713 743.108 616.363 744.938 616.707C746.808 617.058 749.787 619.113 752.061 621.255C755.412 624.41 757.215 627.871 757.141 630.996C757.096 632.837 756.398 634.431 755.118 635.602C754.023 636.606 751.926 637.514 748.151 636.14C745.785 635.279 743.241 633.666 741.17 631.716C738.67 629.362 736.041 626.82 736.658 624.685C737.006 623.48 737.423 622.83 738.525 621.444C739.432 620.305 740.168 619.46 740.969 618.616ZM740.786 615.048L734.341 622.666C733.797 623.31 732.997 623.36 731.92 622.476C728.385 619.571 726.238 614.463 729.791 611.675C733.156 609.035 738.395 611.128 740.372 612.91C741.27 613.718 741.377 614.35 740.786 615.048ZM788.701 615.665L788.65 615.719C787.848 616.564 787.112 617.408 786.205 618.547C785.103 619.933 784.686 620.583 784.338 621.788C783.721 623.923 786.351 626.466 788.85 628.82C790.921 630.77 793.466 632.383 795.831 633.244C799.606 634.617 801.703 633.71 802.798 632.706C804.078 631.535 804.776 629.941 804.821 628.1C804.895 624.974 803.092 621.514 799.741 618.358C797.468 616.216 794.489 614.162 792.618 613.81C790.788 613.466 789.507 614.816 788.701 615.665ZM782.021 619.77L788.466 612.151C789.058 611.454 788.95 610.822 788.052 610.014C786.075 608.231 780.836 606.139 777.471 608.779C773.918 611.566 776.066 616.675 779.6 619.579C780.677 620.464 781.477 620.414 782.021 619.77ZM847.787 655.041L847.819 654.972C848.305 653.907 849.079 652.211 850.921 651.939C852.803 651.66 856.286 652.628 859.13 653.91C863.321 655.799 866.149 658.481 867.092 661.46C867.646 663.216 867.503 664.951 866.672 666.476C865.963 667.784 864.275 669.327 860.259 669.263C857.744 669.222 854.815 668.529 852.225 667.362C849.098 665.953 845.788 664.409 845.679 662.189C845.617 660.936 845.8 660.185 846.393 658.514C846.881 657.141 847.303 656.102 847.787 655.041ZM846.457 651.727L842.834 661.038C842.528 661.824 841.788 662.133 840.483 661.649C836.199 660.058 832.512 655.93 834.968 652.133C837.293 648.537 842.925 648.802 845.373 649.842C846.483 650.312 846.79 650.874 846.457 651.727ZM876.831 690.954L876.807 691.025C876.436 692.131 876.124 693.209 875.782 694.626C875.367 696.35 875.262 697.116 875.454 698.355C875.794 700.552 879.247 701.741 882.503 702.813C885.2 703.702 888.185 704.084 890.691 703.861C894.691 703.503 896.209 701.791 896.779 700.416C897.447 698.812 897.408 697.071 896.674 695.384C895.426 692.519 892.335 690.149 887.97 688.71C885.008 687.734 881.444 687.136 879.601 687.611C877.797 688.076 877.204 689.844 876.831 690.954ZM872.505 697.509L875.139 687.87C875.382 686.986 875.018 686.459 873.865 686.108C871.322 685.331 865.694 685.658 863.755 689.479C861.708 693.513 865.804 697.232 870.23 698.364C871.579 698.709 872.283 698.324 872.505 697.509ZM927.032 671.358L927.042 671.283C927.197 670.122 927.443 668.273 929.125 667.471C930.844 666.652 934.457 666.556 937.549 666.947C942.108 667.522 945.593 669.257 947.362 671.83C948.403 673.346 948.772 675.047 948.421 676.75C948.123 678.208 946.958 680.18 943.1 681.297C940.682 681.997 937.68 682.194 934.863 681.838C931.462 681.409 927.847 680.904 927.097 678.813C926.673 677.633 926.629 676.861 926.71 675.089C926.776 673.632 926.878 672.515 927.032 671.358ZM924.795 668.58L924.041 678.547C923.977 679.39 923.36 679.902 921.97 679.822C917.41 679.558 912.683 676.693 913.926 672.341C915.103 668.219 920.566 666.82 923.209 667.095C924.408 667.219 924.865 667.666 924.795 668.58ZM977.377 691.189L977.367 691.264C977.213 692.42 977.112 693.538 977.045 694.995C976.965 696.766 977.008 697.538 977.432 698.718C978.182 700.81 981.798 701.315 985.198 701.744C988.015 702.099 991.017 701.902 993.435 701.203C997.294 700.086 998.458 698.114 998.757 696.655C999.107 694.953 998.739 693.251 997.697 691.735C995.928 689.163 992.443 687.428 987.885 686.853C984.792 686.462 981.179 686.558 979.461 687.377C977.778 688.179 977.532 690.027 977.377 691.189ZM974.376 698.453L975.13 688.485C975.2 687.572 974.743 687.124 973.544 687.001C970.901 686.725 965.438 688.125 964.261 692.246C963.018 696.599 967.746 699.464 972.305 699.727C973.695 699.808 974.312 699.295 974.376 698.453ZM1022.96 659.724L1022.97 659.649C1023.13 658.488 1023.37 656.639 1025.06 655.837C1026.77 655.018 1030.39 654.922 1033.48 655.313C1038.04 655.888 1041.52 657.623 1043.29 660.196C1044.33 661.712 1044.7 663.413 1044.35 665.116C1044.05 666.574 1042.89 668.546 1039.03 669.663C1036.61 670.363 1033.61 670.56 1030.79 670.204C1027.39 669.775 1023.78 669.27 1023.03 667.179C1022.6 665.999 1022.56 665.227 1022.64 663.455C1022.71 661.998 1022.81 660.881 1022.96 659.724ZM1020.73 656.946L1019.97 666.913C1019.91 667.756 1019.29 668.268 1017.9 668.188C1013.34 667.924 1008.61 665.059 1009.86 660.707C1011.03 656.585 1016.5 655.186 1019.14 655.461C1020.34 655.585 1020.8 656.032 1020.73 656.946ZM1048.3 694.242L1048.29 694.316C1048.14 695.473 1048.04 696.59 1047.97 698.047C1047.89 699.819 1047.93 700.591 1048.36 701.771C1049.11 703.862 1052.72 704.367 1056.12 704.796C1058.94 705.152 1061.94 704.954 1064.36 704.255C1068.22 703.138 1069.38 701.166 1069.68 699.708C1070.03 698.005 1069.66 696.304 1068.62 694.788C1066.85 692.215 1063.37 690.48 1058.81 689.905C1055.72 689.514 1052.1 689.61 1050.39 690.429C1048.7 691.231 1048.46 693.08 1048.3 694.242ZM1045.3 701.505L1046.06 691.538C1046.13 690.624 1045.67 690.176 1044.47 690.053C1041.83 689.777 1036.36 691.177 1035.19 695.298C1033.94 699.651 1038.67 702.516 1043.23 702.78C1044.62 702.86 1045.24 702.347 1045.3 701.505ZM550.551 376.273L550.573 376.2C550.907 375.078 551.438 373.29 553.225 372.763C555.05 372.223 558.633 372.696 561.627 373.568C566.039 374.852 569.211 377.113 570.557 379.932C571.35 381.593 571.449 383.331 570.838 384.958C570.316 386.352 568.858 388.116 564.873 388.613C562.376 388.924 559.38 388.647 556.653 387.854C553.362 386.896 549.87 385.829 549.454 383.646C549.219 382.414 549.297 381.644 549.652 379.907C549.945 378.479 550.219 377.391 550.551 376.273ZM548.775 373.177L546.477 382.904C546.283 383.725 545.593 384.135 544.234 383.837C539.771 382.861 535.548 379.288 537.453 375.184C539.258 371.298 544.872 370.774 547.44 371.462C548.604 371.772 548.986 372.286 548.775 373.177ZM800.197 671.251L800.166 671.319C799.682 672.38 799.259 673.419 798.771 674.793C798.179 676.463 797.995 677.214 798.057 678.467C798.166 680.688 801.476 682.232 804.603 683.641C807.193 684.807 810.122 685.501 812.638 685.541C816.653 685.606 818.341 684.062 819.051 682.755C819.881 681.23 820.025 679.494 819.47 677.739C818.527 674.759 815.7 672.077 811.508 670.189C808.665 668.907 805.182 667.938 803.3 668.217C801.457 668.49 800.683 670.185 800.197 671.251ZM795.212 677.316L798.836 668.006C799.169 667.153 798.862 666.59 797.751 666.12C795.304 665.081 789.672 664.815 787.346 668.411C784.89 672.209 788.577 676.337 792.861 677.927C794.166 678.412 794.906 678.103 795.212 677.316Z" fill="white" fill-opacity="0.25"/>
<path fill-rule="evenodd" clip-rule="evenodd" d="M13.6867 4.98037L13.7084 4.90937C14.0453 3.80566 14.5815 2.04906 16.3836 1.53036C18.2249 1.00039 21.8397 1.46477 24.8597 2.32183C29.311 3.58422 32.5106 5.80639 33.869 8.57711C34.6686 10.2095 34.7681 11.9184 34.1516 13.517C33.6253 14.8868 32.1547 16.6214 28.1345 17.11C25.6158 17.4157 22.5931 17.1434 19.8424 16.3634C16.5218 15.4219 12.999 14.3734 12.5798 12.2272C12.3427 11.0162 12.421 10.2602 12.7795 8.55255C13.0748 7.14865 13.3513 6.07934 13.6867 4.98037ZM11.8948 1.93777L9.5767 11.4978C9.38104 12.3056 8.68507 12.7077 7.31345 12.4154C2.81154 11.4556 -1.44886 7.94409 0.473599 3.91068C2.29413 0.0911029 7.95748 -0.424009 10.5477 0.251605C11.7229 0.556641 12.108 1.06189 11.8948 1.93777ZM64.4868 32.5243L64.4308 32.5742C63.5648 33.3472 62.7649 34.1244 61.7726 35.179C60.5664 36.4621 60.1013 37.0707 59.667 38.2282C58.8964 40.2791 61.3641 42.9528 63.7148 45.4331C65.6619 47.4877 68.1096 49.2442 70.4295 50.2513C74.1327 51.8582 76.3064 51.1124 77.4786 50.2034C78.8486 49.1437 79.663 47.6288 79.8369 45.8267C80.1312 42.7672 78.5584 39.2503 75.4074 35.9252C73.27 33.6688 70.416 31.4494 68.5587 30.9758C66.7409 30.5124 65.3566 31.7479 64.4868 32.5243ZM57.4768 36.0897L64.4966 29.0632C65.1404 28.4199 65.0763 27.7928 64.2296 26.9391C62.365 25.0549 57.2394 22.6427 53.6681 24.9994C49.8969 27.488 51.7001 32.6447 55.0537 35.7359C56.0756 36.6775 56.8838 36.6835 57.4768 36.0897ZM61.475 70.3707L61.419 70.4206C60.553 71.1936 59.7531 71.9709 58.7608 73.0254C57.5546 74.3085 57.0895 74.9171 56.6552 76.0746C55.8846 78.1255 58.3523 80.7993 60.703 83.2795C62.6502 85.3342 65.0978 87.0906 67.4177 88.0977C71.1209 89.7046 73.2946 88.9588 74.4668 88.0499C75.8369 86.9902 76.6512 85.4753 76.8251 83.6731C77.1194 80.6137 75.5467 77.0967 72.3957 73.7716C70.2582 71.5153 67.4042 69.2958 65.5469 68.8223C63.7292 68.3588 62.3448 69.5944 61.475 70.3707ZM54.465 73.9361L61.4848 66.9097C62.1286 66.2663 62.0645 65.6392 61.2178 64.7856C59.3532 62.9013 54.2276 60.4892 50.6563 62.8458C46.8851 65.3345 48.6883 70.4912 52.042 73.5823C53.0638 74.524 53.8721 74.53 54.465 73.9361ZM108.437 70.4206L108.493 70.3707C109.363 69.5944 110.748 68.3588 112.565 68.8223C114.423 69.2958 117.277 71.5153 119.414 73.7716C122.565 77.0967 124.138 80.6137 123.844 83.6731C123.67 85.4753 122.855 86.9902 121.485 88.0499C120.313 88.9588 118.139 89.7046 114.436 88.0977C112.116 87.0906 109.669 85.3342 107.721 83.2795C105.371 80.7993 102.903 78.1255 103.674 76.0746C104.108 74.9171 104.573 74.3085 105.779 73.0254C106.772 71.9709 107.571 71.1936 108.437 70.4206ZM108.503 66.9097L101.483 73.9361C100.89 74.53 100.082 74.524 99.0604 73.5823C95.7068 70.4912 93.9035 65.3345 97.6747 62.8458C101.246 60.4892 106.372 62.9013 108.236 64.7856C109.083 65.6392 109.147 66.2663 108.503 66.9097ZM102.361 112.371L102.305 112.421C101.439 113.194 100.639 113.971 99.6464 115.025C98.4402 116.309 97.9751 116.917 97.5408 118.075C96.7703 120.126 99.238 122.799 101.589 125.28C103.536 127.334 105.983 129.091 108.303 130.098C112.007 131.705 114.18 130.959 115.352 130.05C116.722 128.99 117.537 127.475 117.711 125.673C118.005 122.614 116.432 119.097 113.281 115.772C111.144 113.515 108.29 111.296 106.433 110.822C104.615 110.359 103.23 111.594 102.361 112.371ZM95.3506 115.936L102.37 108.91C103.014 108.266 102.95 107.639 102.103 106.786C100.239 104.901 95.1132 102.489 91.5419 104.846C87.7707 107.334 89.574 112.491 92.9276 115.582C93.9494 116.524 94.7577 116.53 95.3506 115.936ZM153.412 121.421L153.468 121.371C154.337 120.594 155.722 119.359 157.539 119.822C159.397 120.296 162.251 122.515 164.388 124.772C167.539 128.097 169.112 131.614 168.818 134.673C168.644 136.475 167.829 137.99 166.459 139.05C165.287 139.959 163.113 140.705 159.41 139.098C157.09 138.091 154.643 136.334 152.696 134.28C150.345 131.799 147.877 129.126 148.648 127.075C149.082 125.917 149.547 125.309 150.753 124.025C151.746 122.971 152.546 122.194 153.412 121.421ZM153.477 117.91L146.458 124.936C145.865 125.53 145.056 125.524 144.035 124.582C140.681 121.491 138.878 116.334 142.649 113.846C146.22 111.489 151.346 113.901 153.21 115.786C154.057 116.639 154.121 117.266 153.477 117.91ZM144.046 159.104L143.975 159.131C142.884 159.549 141.852 159.994 140.54 160.631C138.944 161.406 138.286 161.811 137.457 162.739C135.986 164.384 137.311 167.745 138.597 170.885C139.662 173.486 141.304 175.984 143.101 177.737C145.969 180.536 148.272 180.602 149.699 180.164C151.366 179.655 152.681 178.526 153.504 176.905C154.899 174.152 154.719 170.317 152.996 166.108C151.827 163.252 149.975 160.179 148.415 159.086C146.887 158.016 145.142 158.684 144.046 159.104ZM136.196 159.975L145.323 155.876C146.16 155.501 146.33 154.894 145.852 153.8C144.801 151.387 140.9 147.338 136.702 148.286C132.27 149.287 132.064 154.733 134.063 158.795C134.672 160.032 135.424 160.321 136.196 159.975ZM188.493 173.761L188.564 173.734C189.66 173.314 191.405 172.646 192.932 173.716C194.493 174.809 196.344 177.882 197.513 180.738C199.237 184.947 199.417 188.781 198.022 191.534C197.199 193.156 195.884 194.285 194.217 194.794C192.789 195.231 190.487 195.165 187.618 192.367C185.821 190.613 184.18 188.115 183.115 185.514C181.829 182.375 180.504 179.013 181.975 177.369C182.804 176.441 183.461 176.035 185.057 175.261C186.37 174.624 187.402 174.179 188.493 173.761ZM189.841 170.506L180.713 174.605C179.942 174.951 179.19 174.662 178.581 173.425C176.582 169.363 176.788 163.917 181.22 162.916C185.417 161.968 189.319 166.017 190.369 168.429C190.847 169.523 190.677 170.131 189.841 170.506ZM174.254 214.734L174.183 214.761C173.092 215.179 172.06 215.624 170.747 216.261C169.151 217.035 168.494 217.441 167.665 218.369C166.194 220.013 167.519 223.375 168.805 226.514C169.87 229.115 171.511 231.613 173.308 233.367C176.177 236.165 178.479 236.231 179.907 235.794C181.574 235.285 182.889 234.156 183.712 232.534C185.107 229.781 184.927 225.947 183.203 221.738C182.034 218.882 180.183 215.809 178.622 214.716C177.095 213.646 175.35 214.314 174.254 214.734ZM166.403 215.605L175.531 211.506C176.367 211.131 176.537 210.523 176.059 209.429C175.009 207.017 171.107 202.968 166.91 203.916C162.478 204.917 162.272 210.363 164.271 214.425C164.88 215.662 165.632 215.951 166.403 215.605ZM216.091 232.761L216.161 232.734C217.258 232.314 219.003 231.646 220.53 232.716C222.091 233.809 223.942 236.882 225.111 239.738C226.835 243.947 227.015 247.781 225.619 250.534C224.797 252.156 223.482 253.285 221.814 253.794C220.387 254.231 218.085 254.165 215.216 251.367C213.419 249.613 211.777 247.115 210.712 244.514C209.426 241.375 208.102 238.013 209.572 236.369C210.402 235.441 211.059 235.035 212.655 234.261C213.968 233.624 214.999 233.179 216.091 232.761ZM217.438 229.506L208.311 233.605C207.54 233.951 206.788 233.662 206.179 232.425C204.18 228.363 204.385 222.917 208.818 221.916C213.015 220.968 216.917 225.017 217.967 227.429C218.445 228.523 218.275 229.131 217.438 229.506ZM201.744 287.124L201.692 287.178C200.883 288.008 200.141 288.838 199.226 289.957C198.114 291.32 197.694 291.959 197.343 293.143C196.72 295.241 199.373 297.74 201.895 300.054C203.983 301.971 206.55 303.556 208.936 304.402C212.745 305.753 214.86 304.86 215.965 303.873C217.256 302.723 217.96 301.156 218.005 299.346C218.081 296.274 216.261 292.873 212.881 289.771C210.588 287.666 207.582 285.647 205.696 285.301C203.849 284.963 202.557 286.29 201.744 287.124ZM195.006 291.159L201.507 283.671C202.104 282.985 201.995 282.364 201.089 281.57C199.095 279.818 193.81 277.761 190.415 280.356C186.831 283.096 188.997 288.117 192.563 290.972C193.65 291.841 194.456 291.792 195.006 291.159ZM249.792 284.331L249.844 284.277C250.656 283.443 251.949 282.116 253.796 282.455C255.682 282.8 258.687 284.819 260.98 286.924C264.361 290.026 266.181 293.427 266.105 296.5C266.06 298.309 265.356 299.876 264.065 301.027C262.96 302.013 260.845 302.906 257.036 301.555C254.65 300.709 252.083 299.124 249.994 297.207C247.472 294.893 244.82 292.395 245.443 290.296C245.793 289.112 246.214 288.473 247.326 287.111C248.24 285.991 248.983 285.161 249.792 284.331ZM249.607 280.824L243.105 288.312C242.556 288.945 241.749 288.994 240.663 288.125C237.097 285.27 234.93 280.249 238.515 277.509C241.91 274.914 247.195 276.971 249.189 278.723C250.095 279.517 250.203 280.138 249.607 280.824ZM309.481 322.912L309.45 322.98C308.961 324.022 308.535 325.043 308.043 326.393C307.445 328.036 307.26 328.774 307.323 330.005C307.433 332.188 310.772 333.705 313.926 335.09C316.539 336.237 319.494 336.918 322.032 336.958C326.082 337.022 327.785 335.504 328.501 334.22C329.339 332.72 329.484 331.015 328.924 329.289C327.973 326.361 325.121 323.724 320.892 321.868C318.024 320.608 314.51 319.656 312.611 319.93C310.753 320.199 309.972 321.865 309.481 322.912ZM304.453 328.874L308.108 319.723C308.444 318.884 308.134 318.331 307.014 317.869C304.545 316.848 298.864 316.587 296.517 320.121C294.04 323.854 297.759 327.911 302.081 329.474C303.398 329.951 304.144 329.647 304.453 328.874ZM338.725 358.349L338.749 358.278C339.125 357.187 339.724 355.45 341.543 354.993C343.402 354.526 346.998 355.113 349.986 356.073C354.39 357.487 357.508 359.817 358.767 362.632C359.508 364.291 359.546 366.002 358.873 367.579C358.298 368.93 356.767 370.613 352.731 370.964C350.203 371.184 347.192 370.808 344.471 369.935C341.186 368.88 337.703 367.712 337.36 365.553C337.167 364.335 337.272 363.582 337.691 361.888C338.036 360.495 338.351 359.435 338.725 358.349ZM337.043 355.247L334.385 364.722C334.161 365.522 333.451 365.9 332.09 365.561C327.626 364.449 323.493 360.794 325.558 356.828C327.514 353.073 333.192 352.752 335.757 353.515C336.92 353.86 337.287 354.379 337.043 355.247ZM389.402 338.944L389.392 339.018C389.236 340.155 389.134 341.253 389.067 342.685C388.986 344.426 389.029 345.185 389.457 346.345C390.214 348.401 393.861 348.897 397.292 349.319C400.133 349.668 403.162 349.474 405.601 348.787C409.494 347.689 410.669 345.751 410.97 344.317C411.323 342.644 410.951 340.971 409.901 339.482C408.116 336.953 404.6 335.248 400.002 334.682C396.882 334.298 393.238 334.392 391.504 335.198C389.807 335.986 389.558 337.803 389.402 338.944ZM386.374 346.084L387.135 336.287C387.206 335.389 386.745 334.949 385.535 334.828C382.869 334.557 377.358 335.932 376.17 339.984C374.916 344.262 379.686 347.078 384.286 347.337C385.687 347.416 386.31 346.912 386.374 346.084ZM440.17 358.583L440.18 358.509C440.336 357.368 440.585 355.551 442.282 354.763C444.016 353.957 447.66 353.863 450.78 354.247C455.378 354.813 458.894 356.518 460.679 359.046C461.729 360.536 462.101 362.209 461.748 363.882C461.447 365.316 460.272 367.254 456.379 368.352C453.94 369.039 450.911 369.233 448.07 368.884C444.639 368.462 440.992 367.966 440.235 365.91C439.807 364.75 439.764 363.991 439.845 362.25C439.912 360.818 440.014 359.72 440.17 358.583ZM437.913 355.852L437.152 365.649C437.088 366.477 436.465 366.98 435.064 366.902C430.464 366.643 425.694 363.827 426.948 359.549C428.136 355.497 433.647 354.122 436.313 354.393C437.523 354.514 437.984 354.954 437.913 355.852ZM486.176 327.509L486.166 327.583C486.01 328.72 485.908 329.818 485.841 331.25C485.76 332.991 485.804 333.75 486.231 334.91C486.989 336.966 490.636 337.462 494.066 337.884C496.908 338.233 499.937 338.039 502.375 337.352C506.268 336.254 507.443 334.316 507.744 332.882C508.097 331.209 507.726 329.536 506.675 328.046C504.89 325.518 501.375 323.813 496.776 323.247C493.656 322.863 490.012 322.957 488.278 323.763C486.581 324.551 486.332 326.368 486.176 327.509ZM483.149 334.649L483.91 324.852C483.98 323.954 483.519 323.514 482.31 323.393C479.643 323.122 474.132 324.497 472.945 328.549C471.691 332.827 476.46 335.643 481.06 335.902C482.462 335.98 483.085 335.477 483.149 334.649ZM511.72 361.583L511.73 361.509C511.886 360.368 512.135 358.551 513.832 357.763C515.565 356.957 519.21 356.863 522.33 357.247C526.928 357.813 530.444 359.518 532.228 362.046C533.279 363.536 533.651 365.209 533.297 366.882C532.997 368.316 531.822 370.254 527.929 371.352C525.49 372.039 522.461 372.233 519.62 371.884C516.189 371.462 512.542 370.966 511.785 368.91C511.357 367.75 511.314 366.991 511.395 365.25C511.462 363.818 511.564 362.72 511.72 361.583ZM509.463 358.852L508.702 368.649C508.638 369.477 508.015 369.98 506.614 369.902C502.014 369.643 497.244 366.827 498.498 362.549C499.685 358.497 505.197 357.122 507.863 357.393C509.073 357.514 509.534 357.954 509.463 358.852ZM22.9076 41.9094L22.886 41.9804C22.5505 43.0793 22.2741 44.1487 21.9787 45.5526C21.6202 47.2602 21.5419 48.0162 21.779 49.2272C22.1982 51.3734 25.721 52.4219 29.0416 53.3634C31.7923 54.1434 34.815 54.4157 37.3338 54.11C41.3539 53.6214 42.8245 51.8868 43.3508 50.517C43.9673 48.9184 43.8679 47.2095 43.0682 45.5771C41.7098 42.8064 38.5102 40.5842 34.0589 39.3218C31.0389 38.4648 27.4241 38.0004 25.5828 38.5304C23.7807 39.0491 23.2445 40.8057 22.9076 41.9094ZM18.7759 48.4978L21.094 38.9378C21.3072 38.0619 20.9221 37.5566 19.7469 37.2516C17.1567 36.576 11.4933 37.0911 9.67282 40.9107C7.75036 44.9441 12.0108 48.4556 16.5127 49.4154C17.8843 49.7077 18.5803 49.3056 18.7759 48.4978ZM261.441 338.912L261.409 338.98C260.921 340.022 260.495 341.043 260.003 342.393C259.405 344.036 259.22 344.774 259.282 346.005C259.392 348.188 262.731 349.705 265.886 351.09C268.499 352.237 271.453 352.918 273.991 352.958C278.042 353.022 279.745 351.504 280.461 350.22C281.299 348.72 281.443 347.015 280.883 345.289C279.932 342.361 277.08 339.724 272.852 337.868C269.983 336.608 266.469 335.656 264.571 335.93C262.712 336.199 261.931 337.865 261.441 338.912ZM256.412 344.874L260.068 335.723C260.403 334.884 260.094 334.331 258.973 333.869C256.505 332.848 250.823 332.587 248.477 336.121C245.999 339.854 249.719 343.911 254.04 345.474C255.357 345.951 256.103 345.647 256.412 344.874Z" fill="white" fill-opacity="0.25"/>
<path d="M538.572 332.967C539.106 331.769 539.945 329.784 542.315 329.083C544.685 328.382 549.184 328.614 552.895 329.31C558.365 330.334 562.163 332.475 563.589 335.337C564.429 337.023 564.38 338.842 563.442 340.595C562.641 342.098 560.615 344.059 555.509 344.874C552.31 345.385 548.536 345.315 545.156 344.682C541.076 343.918 536.752 343.055 536.443 340.792C536.268 339.515 536.443 338.702 537.068 336.851C537.582 335.329 538.038 334.166 538.572 332.967ZM536.628 329.846L532.74 340.232C532.412 341.11 531.495 341.59 529.8 341.378C524.236 340.681 519.235 337.239 522.063 332.788C524.741 328.574 531.916 327.609 535.105 328.142C536.552 328.382 536.985 328.894 536.628 329.846Z" fill="white" fill-opacity="0.25"/>
</svg>
