<svg width="50" height="50" viewBox="0 0 50 50" fill="none" xmlns="http://www.w3.org/2000/svg">
<path d="M45.1318 16.5235C44.0362 13.9089 42.4425 11.5324 40.4394 9.52641C38.4422 7.51699 36.0699 5.91937 33.457 4.82426C30.7803 3.69696 27.9043 3.11912 24.9999 3.12505H24.9023C21.9482 3.13969 19.0917 3.72563 16.4013 4.87797C13.8108 5.98432 11.4608 7.58477 9.48237 9.58989C7.49863 11.5913 5.92315 13.9595 4.84369 16.5625C3.72317 19.2694 3.1554 22.173 3.17377 25.1026C3.18842 28.4913 3.99897 31.8555 5.51264 34.8633V42.2852C5.51264 43.5254 6.5185 44.5313 7.75385 44.5313H15.166C18.1878 46.0562 21.5224 46.8585 24.9072 46.875H25.0097C27.9296 46.875 30.7568 46.3086 33.4228 45.2002C36.0225 44.1182 38.386 42.5392 40.3808 40.5518C42.3925 38.5547 43.9746 36.2207 45.083 33.6182C46.2304 30.9229 46.8163 28.0567 46.831 25.0977C46.8408 22.1241 46.2646 19.2383 45.1318 16.5235ZM15.2538 27.3438C13.9648 27.3438 12.915 26.294 12.915 25C12.915 23.7061 13.9648 22.6563 15.2538 22.6563C16.5429 22.6563 17.5927 23.7061 17.5927 25C17.5927 26.294 16.5478 27.3438 15.2538 27.3438ZM24.9999 27.3438C23.7109 27.3438 22.6611 26.294 22.6611 25C22.6611 23.7061 23.7109 22.6563 24.9999 22.6563C26.289 22.6563 27.3388 23.7061 27.3388 25C27.3388 26.294 26.289 27.3438 24.9999 27.3438ZM34.746 27.3438C33.457 27.3438 32.4072 26.294 32.4072 25C32.4072 23.7061 33.457 22.6563 34.746 22.6563C36.0351 22.6563 37.0849 23.7061 37.0849 25C37.0849 26.294 36.0351 27.3438 34.746 27.3438Z" fill="#232141"/>
</svg>
