<svg width="50" height="50" viewBox="0 0 50 50" fill="none" xmlns="http://www.w3.org/2000/svg">
<path d="M25 3.125C12.9199 3.125 3.125 12.9199 3.125 25C3.125 37.0801 12.9199 46.875 25 46.875C37.0801 46.875 46.875 37.0801 46.875 25C46.875 12.9199 37.0801 3.125 25 3.125ZM14.0625 20.5566C14.075 19.9433 14.3275 19.3594 14.7656 18.93C15.2038 18.5007 15.7928 18.2602 16.4062 18.2602C17.0197 18.2602 17.6087 18.5007 18.0469 18.93C18.485 19.3594 18.7375 19.9433 18.75 20.5566C18.7375 21.17 18.485 21.7539 18.0469 22.1833C17.6087 22.6126 17.0197 22.853 16.4062 22.853C15.7928 22.853 15.2038 22.6126 14.7656 22.1833C14.3275 21.7539 14.075 21.17 14.0625 20.5566ZM25 33.8379C20.8252 33.8379 17.4023 30.5518 17.1875 26.4355C17.1849 26.3826 17.193 26.3297 17.2114 26.2801C17.2299 26.2304 17.2582 26.185 17.2948 26.1466C17.3313 26.1083 17.3753 26.0777 17.424 26.0569C17.4727 26.036 17.5251 26.0253 17.5781 26.0254H19.9268C20.1318 26.0254 20.3076 26.1816 20.3223 26.3867C20.5078 28.8037 22.5342 30.7129 25 30.7129C27.4658 30.7129 29.4971 28.8037 29.6777 26.3867C29.6924 26.1816 29.8682 26.0254 30.0732 26.0254H32.4219C32.4749 26.0253 32.5273 26.036 32.576 26.0569C32.6247 26.0777 32.6687 26.1083 32.7052 26.1466C32.7418 26.185 32.7701 26.2304 32.7886 26.2801C32.807 26.3297 32.8151 26.3826 32.8125 26.4355C32.5977 30.5518 29.1748 33.8379 25 33.8379ZM33.5938 22.9004C32.9804 22.8879 32.3965 22.6354 31.9671 22.1973C31.5378 21.7591 31.2974 21.1701 31.2974 20.5566C31.2974 19.9432 31.5378 19.3542 31.9671 18.916C32.3965 18.4778 32.9804 18.2254 33.5938 18.2129C34.2071 18.2254 34.791 18.4778 35.2204 18.916C35.6497 19.3542 35.8901 19.9432 35.8901 20.5566C35.8901 21.1701 35.6497 21.7591 35.2204 22.1973C34.791 22.6354 34.2071 22.8879 33.5938 22.9004Z" fill="#232141"/>
</svg>
