<svg width="50" height="50" viewBox="0 0 50 50" fill="none" xmlns="http://www.w3.org/2000/svg">
<path fill-rule="evenodd" clip-rule="evenodd" d="M7.8125 7.03218H22.6562C23.0877 7.03218 23.4375 7.38193 23.4375 7.81343V22.6572C23.4375 23.0887 23.0877 23.4384 22.6562 23.4384H7.8125C7.38101 23.4384 7.03125 23.0887 7.03125 22.6572V7.81343C7.03125 7.38193 7.38101 7.03218 7.8125 7.03218ZM35.3669 5.79521L44.2057 14.6341C44.5108 14.9392 44.5108 15.4338 44.2057 15.7389L35.3668 24.5777C35.0618 24.8828 34.5671 24.8828 34.262 24.5777L25.4232 15.7389C25.1181 15.4338 25.1181 14.9392 25.4232 14.634L34.2621 5.79521C34.5671 5.49014 35.0618 5.49014 35.3669 5.79521ZM7.8125 26.5634H22.6562C23.0877 26.5634 23.4375 26.9132 23.4375 27.3447V42.1884C23.4375 42.6199 23.0877 42.9697 22.6562 42.9697H7.8125C7.38101 42.9697 7.03125 42.6199 7.03125 42.1884V27.3447C7.03125 26.9132 7.38101 26.5634 7.8125 26.5634ZM27.3438 26.5634H42.1875C42.619 26.5634 42.9688 26.9132 42.9688 27.3447V42.1884C42.9688 42.6199 42.619 42.9697 42.1875 42.9697H27.3438C26.9123 42.9697 26.5625 42.6199 26.5625 42.1884V27.3447C26.5625 26.9132 26.9123 26.5634 27.3438 26.5634Z" fill="#232141"/>
</svg>
