<svg width="35" height="35" viewBox="0 0 35 35" fill="none" xmlns="http://www.w3.org/2000/svg">
<path fill-rule="evenodd" clip-rule="evenodd" d="M33.4215 22.0926C32.3661 20.7241 30.9437 19.6638 29.3099 19.0278L29.2245 18.9976C28.0389 18.537 26.7513 18.3805 25.4855 18.5433C24.2196 18.7061 23.0182 19.1827 21.9969 19.9271L21.066 20.6029C20.8169 20.7837 20.5091 20.8713 20.199 20.8497C19.8889 20.828 19.5972 20.6984 19.3773 20.4848L14.5003 15.7469C14.2797 15.5332 14.146 15.2493 14.1236 14.9475C14.1013 14.6456 14.1919 14.3461 14.3788 14.104L15.077 13.1996C15.8424 12.2079 16.3324 11.0417 16.5 9.81295C16.6675 8.58421 16.507 7.33426 16.0338 6.18319L16.0001 6.1028C15.3461 4.51378 14.2547 3.13019 12.8453 2.10347L12.354 1.74424C11.5746 1.17659 10.6652 0.800986 9.70364 0.649602C8.74209 0.498219 7.7571 0.575573 6.83306 0.875035L6.34174 1.0333C5.0157 1.46335 3.81086 2.18728 2.82257 3.14781C1.83427 4.10835 1.08962 5.27914 0.647552 6.56754C-0.11103 8.77792 -0.205218 11.1526 0.37603 13.4131C1.48558 17.7232 3.78003 21.6593 7.01408 24.8007L10.0603 27.76C13.2942 30.9008 17.3459 33.1289 21.7822 34.2061C24.1096 34.7739 26.5533 34.6834 28.8289 33.9448C30.1562 33.5152 31.3622 32.7912 32.3514 31.8302C33.3407 30.8691 34.086 29.6975 34.5282 28.4081L34.6911 27.9333C34.999 27.0354 35.0782 26.0784 34.922 25.1443C34.7657 24.2102 34.3786 23.3268 33.7938 22.5699L33.424 22.0926H33.4215ZM10.2413 5.47728L9.74998 5.11804C9.53232 4.95974 9.27838 4.8551 9.00994 4.8131C8.74151 4.77109 8.46659 4.79298 8.20877 4.87687L7.71745 5.03514C6.32622 5.48732 5.23497 6.54745 4.7695 7.89898C4.27129 9.34922 4.20939 10.9075 4.59107 12.3907C5.50969 15.9582 7.40907 19.2162 10.0861 21.8162L13.1324 24.7755C15.8088 27.3761 19.1624 29.2213 22.8347 30.1138C24.3604 30.4831 25.9637 30.4228 27.4558 29.9405C28.8496 29.4883 29.9408 28.4282 30.4037 27.0767L30.5692 26.5993C30.6552 26.3487 30.6773 26.0815 30.6336 25.8207C30.5899 25.5599 30.4817 25.3133 30.3184 25.1021L29.9486 24.6248C29.371 23.8759 28.5928 23.2954 27.6988 22.9467L27.6135 22.914C27.1202 22.7224 26.5844 22.6573 26.0576 22.725C25.5309 22.7928 25.031 22.9911 24.6061 23.3009L23.6751 23.9792C22.5895 24.7697 21.2468 25.1532 19.8936 25.0596C18.5403 24.9659 17.2672 24.4012 16.3079 23.4692L11.4308 18.7313C10.4708 17.7993 9.88909 16.562 9.79265 15.2467C9.69622 13.9315 10.0915 12.6266 10.9059 11.5717L11.6041 10.6674C12.2506 9.8283 12.4031 8.72296 12.0023 7.74825L11.9687 7.66786C11.6107 6.79752 11.0131 6.03966 10.2413 5.47728Z" fill="#232141"/>
</svg>
