<svg width="35" height="36" viewBox="0 0 35 36" fill="none" xmlns="http://www.w3.org/2000/svg">
<g clip-path="url(#clip0_128_1362)">
<path d="M17.5 18.0742C15.5215 18.0742 13.9028 16.4992 13.9028 14.5742C13.9028 12.6492 15.5215 11.0742 17.5 11.0742C19.4784 11.0742 21.0972 12.6492 21.0972 14.5742C21.0972 16.4992 19.4784 18.0742 17.5 18.0742ZM28.2916 14.9242C28.2916 8.57172 23.5253 4.07422 17.5 4.07422C11.4746 4.07422 6.70831 8.57172 6.70831 14.9242C6.70831 19.0192 10.2156 24.4442 17.5 30.9192C24.7843 24.4442 28.2916 19.0192 28.2916 14.9242ZM17.5 0.574219C25.0541 0.574219 31.8889 6.20922 31.8889 14.9242C31.8889 20.7342 27.0866 27.6117 17.5 35.5742C7.91338 27.6117 3.11108 20.7342 3.11108 14.9242C3.11108 6.20922 9.94581 0.574219 17.5 0.574219Z" fill="#232141"/>
</g>
<defs>
<clipPath id="clip0_128_1362">
<rect width="35" height="35" fill="white" transform="translate(0 0.574219)"/>
</clipPath>
</defs>
</svg>
