<svg width="35" height="27" viewBox="0 0 35 27" fill="none" xmlns="http://www.w3.org/2000/svg">
<path d="M31.7506 3.96978L33.3609 3.03711H31.5H3.5H1.63912L3.2494 3.96978L17.2494 12.0785L17.5 12.2237L17.7506 12.0785L31.7506 3.96978ZM3.75097 6.35466L3 5.91883V6.78711V23.0371V23.5371H3.5H31.5H32V23.0371V6.78711V5.91883L31.249 6.35466L17.5 14.334L3.75097 6.35466ZM31.5 25.7871H3.5C1.8156 25.7871 0.5 24.5142 0.5 23.0371V3.53711C0.5 2.06 1.8156 0.787109 3.5 0.787109H31.5C33.1844 0.787109 34.5 2.06 34.5 3.53711V23.0371C34.5 24.5142 33.1844 25.7871 31.5 25.7871Z" fill="#232141" stroke="#171717"/>
</svg>
