<svg width="35" height="35" viewBox="0 0 35 35" fill="none" xmlns="http://www.w3.org/2000/svg">
<path fill-rule="evenodd" clip-rule="evenodd" d="M30.647 20.9868C29.7424 19.7793 28.5232 18.8438 27.1227 18.2825L27.0496 18.2559C26.0334 17.8495 24.9297 17.7114 23.8447 17.8551C22.7597 17.9987 21.7299 18.4192 20.8545 19.0761L20.0565 19.6723C19.8431 19.8319 19.5792 19.9092 19.3134 19.8901C19.0476 19.871 18.7976 19.7567 18.6092 19.5682L14.4288 15.3877C14.2398 15.1991 14.1251 14.9486 14.106 14.6823C14.0868 14.416 14.1645 14.1517 14.3247 13.938L14.9231 13.14C15.5792 12.265 15.9992 11.236 16.1428 10.1518C16.2864 9.06764 16.1488 7.96474 15.7432 6.94909L15.7144 6.87816C15.1538 5.47608 14.2183 4.25527 13.0103 3.34934L12.5891 3.03237C11.9211 2.53151 11.1416 2.20009 10.3174 2.06652C9.49322 1.93294 8.64894 2.00119 7.85691 2.26543L7.43578 2.40507C6.29917 2.78452 5.26645 3.42328 4.41934 4.27082C3.57223 5.11835 2.93396 6.1514 2.55504 7.28823C1.90483 9.23856 1.8241 11.3339 2.32231 13.3284C3.27336 17.1315 5.24003 20.6045 8.01207 23.3763L10.6231 25.9874C13.395 28.7588 16.8679 30.7247 20.6705 31.6752C22.6653 32.1761 24.7599 32.0964 26.7105 31.4447C27.8481 31.0656 28.8819 30.4267 29.7298 29.5788C30.5777 28.7308 31.2166 27.697 31.5956 26.5593L31.7353 26.1404C31.9992 25.3481 32.0671 24.5037 31.9331 23.6795C31.7992 22.8553 31.4674 22.0758 30.9661 21.4079L30.6492 20.9868H30.647ZM10.7783 6.32623L10.3571 6.00925C10.1706 5.86958 9.9529 5.77725 9.72281 5.74019C9.49272 5.70312 9.25708 5.72243 9.03609 5.79646L8.61495 5.93611C7.42248 6.33509 6.48711 7.2705 6.08814 8.46302C5.66111 9.74265 5.60805 11.1176 5.93521 12.4263C6.72259 15.5741 8.35063 18.4488 10.6453 20.743L13.2563 23.3541C15.5504 25.6488 18.4249 27.2768 21.5726 28.0644C22.8803 28.3902 24.2546 28.337 25.5335 27.9114C26.7282 27.5124 27.6636 26.577 28.0603 25.3845L28.2022 24.9634C28.2759 24.7422 28.2948 24.5064 28.2574 24.2763C28.2199 24.0462 28.1272 23.8286 27.9872 23.6423L27.6702 23.2211C27.1751 22.5603 26.5081 22.0481 25.7419 21.7404L25.6687 21.7116C25.2459 21.5425 24.7866 21.485 24.3351 21.5448C23.8837 21.6046 23.4552 21.7796 23.0909 22.053L22.293 22.6514C21.3624 23.3489 20.2116 23.6874 19.0516 23.6047C17.8917 23.5221 16.8004 23.0238 15.9782 22.2015L11.7978 18.021C10.9749 17.1986 10.4764 16.1068 10.3937 14.9463C10.311 13.7858 10.6499 12.6344 11.3479 11.7037L11.9464 10.9057C12.5005 10.1654 12.6313 9.19007 12.2877 8.33003L12.2589 8.2591C11.952 7.49115 11.4398 6.82245 10.7783 6.32623Z" fill="#232141"/>
</svg>
