<svg width="50" height="38" viewBox="0 0 50 38" fill="none" xmlns="http://www.w3.org/2000/svg">
    <path d="M22.9397 36.9225C23.169 37.2556 23.4759 37.528 23.8339 37.7161C24.1919 37.9043 24.5902 38.0026 24.9947 38.0026C25.3991 38.0026 25.7974 37.9043 26.1554 37.7161C26.5134 37.528 26.8203 37.2556 27.0497 36.9225L49.5497 4.4225C49.8101 4.04764 49.9628 3.60858 49.9912 3.15301C50.0197 2.69745 49.9227 2.24281 49.7109 1.83848C49.499 1.43416 49.1805 1.09562 48.7897 0.859646C48.399 0.62367 47.9511 0.499284 47.4947 0.500003H2.49465C2.03926 0.501884 1.593 0.62787 1.20386 0.86441C0.814712 1.10095 0.497411 1.4391 0.286076 1.84249C0.0747405 2.24587 -0.0226329 2.69924 0.00442699 3.15383C0.0314869 3.60842 0.181956 4.04703 0.439654 4.4225L22.9397 36.9225Z" fill="#FF9900" fill-opacity="0.25"/>
</svg>