<svg width="12" height="13" viewBox="0 0 12 13" fill="none" xmlns="http://www.w3.org/2000/svg">
<g opacity="0.5">
<path d="M2.63475 0.0756543C2.24764 0.248988 2.02808 0.630321 2.02808 1.12721V1.3641L1.58897 1.39877C1.0343 1.45077 0.733859 1.58365 0.427637 1.91877C0.13297 2.23654 0.00585938 2.62943 0.00585938 3.21299V3.63477H5.81253H11.6192V3.21299C11.6192 2.63521 11.4921 2.23654 11.209 1.93032C10.9085 1.60677 10.5965 1.45654 10.1054 1.41032L9.71253 1.36988V1.1561C9.71253 0.248988 8.9383 -0.271012 8.23342 0.162321C7.99075 0.312543 7.80586 0.705432 7.80586 1.08099V1.38143H7.31475H6.82364V1.13299C6.82364 0.734321 6.72542 0.485877 6.47697 0.266321C5.82986 -0.323012 4.91697 0.150765 4.91697 1.08099V1.38143H4.42586H3.93475V1.07521C3.93475 0.318321 3.25875 -0.201679 2.63475 0.0756543ZM3.15475 0.549432C3.36853 0.636099 3.41475 0.872988 3.41475 1.90143C3.41475 2.8721 3.41475 2.88943 3.2703 3.0281C3.05075 3.25343 2.77342 3.21299 2.63475 2.93565C2.52497 2.73343 2.51342 1.00588 2.61164 0.780543C2.70408 0.578321 2.94675 0.474321 3.15475 0.549432ZM6.03208 0.578321C6.26897 0.682321 6.30364 0.861432 6.30364 1.84943C6.30364 2.54854 6.28053 2.81432 6.21697 2.93565C6.0783 3.21299 5.80097 3.25343 5.57564 3.0281L5.43119 2.88365L5.44853 1.80899C5.46586 0.76321 5.47164 0.734321 5.60453 0.624543C5.76053 0.497432 5.83564 0.491654 6.03208 0.578321ZM9.00186 0.653432L9.16364 0.792099L9.18097 1.73388C9.20408 2.76232 9.18675 2.88943 9.01919 3.05699C8.86319 3.21299 8.63786 3.20143 8.4703 3.0281C8.32586 2.88943 8.32586 2.87788 8.32586 1.84365C8.32586 0.809432 8.32586 0.797877 8.4703 0.65921C8.64364 0.480099 8.79386 0.474321 9.00186 0.653432Z" fill="#171717"/>
<path d="M0.0173333 8.09511L0.0346667 11.868L0.213778 12.1858C0.404444 12.5324 0.785778 12.8329 1.14978 12.9369C1.44444 13.0178 10.1804 13.0178 10.4751 12.9369C10.8391 12.8329 11.2204 12.5324 11.4111 12.1858L11.5902 11.868L11.6076 8.09511L11.6249 4.328H11.1569H10.6947V8.01422C10.6947 12.0991 10.7178 11.8796 10.3133 12.0471C10.0302 12.1684 1.59467 12.1684 1.31156 12.0471C0.907111 11.8796 0.930222 12.0991 0.930222 8.01422V4.328H0.468H0L0.0173333 8.09511Z" fill="#171717"/>
<path d="M3.9174 5.22938C3.89429 5.25249 3.87695 5.58183 3.87695 5.95738V6.63916H4.71473H5.55829L5.54095 5.92849L5.52362 5.2236L4.73784 5.20627C4.31029 5.20049 3.94051 5.21205 3.9174 5.22938Z" fill="#171717"/>
<path d="M6.11271 5.22938C6.0896 5.25249 6.07227 5.58183 6.07227 5.95738V6.63916H6.91004H7.7536L7.73627 5.92849L7.71893 5.2236L6.93315 5.20627C6.5056 5.20049 6.13582 5.21205 6.11271 5.22938Z" fill="#171717"/>
<path d="M8.26807 5.91694V6.63916H9.07696H9.88584V5.91694V5.19472H9.07696H8.26807V5.91694Z" fill="#171717"/>
<path d="M1.73926 7.88129V8.60352H2.54815H3.35704V7.88129V7.15907H2.54815H1.73926V7.88129Z" fill="#171717"/>
<path d="M3.87695 7.88129V8.60352H4.71473H5.55251V7.88129V7.15907H4.71473H3.87695V7.88129Z" fill="#171717"/>
<path d="M6.07227 7.88129V8.60352H6.91004H7.74782V7.88129V7.15907H6.91004H6.07227V7.88129Z" fill="#171717"/>
<path d="M8.26807 7.88129V8.60352H9.07696H9.88584V7.88129V7.15907H9.07696H8.26807V7.88129Z" fill="#171717"/>
<path d="M1.73926 9.84565V10.5679H2.54815H3.35704V9.84565V9.12343H2.54815H1.73926V9.84565Z" fill="#171717"/>
<path d="M3.88843 9.8284L3.90576 10.5391L4.73198 10.5564L5.55243 10.5737V9.84573V9.12351H4.71465H3.87109L3.88843 9.8284Z" fill="#171717"/>
<path d="M6.07227 9.84573V10.5737L6.89849 10.5564L7.71893 10.5391L7.73627 9.8284L7.7536 9.12351H6.91004H6.07227V9.84573Z" fill="#171717"/>
<path d="M8.26807 9.84565V10.5679H9.07696H9.88584V9.84565V9.12343H9.07696H8.26807V9.84565Z" fill="#171717"/>
</g>
</svg>
