<svg width="759" height="759" viewBox="0 0 759 759" fill="none" xmlns="http://www.w3.org/2000/svg">
    <rect width="759" height="759" rx="379.5" fill="#F8F8F8"/>
    <g filter="url(#filter0_d_1352_12057)">
        <path d="M502.026 608.631C478.899 619.551 451.85 609.553 441.618 586.286L420.428 538.231L385.137 458.11L412.916 444.974L427.018 438.34C457.665 507.899 477.443 552.83 502.026 608.631Z" fill="#2F2F2F"/>
        <path d="M531.7 589.375L499.539 558.362C359.544 423.443 407.833 469.984 397.388 459.919L412.916 444.984L430.705 427.941L531.788 525.39C550.125 543.032 550.081 571.689 531.7 589.39V589.375Z" fill="#2F2F2F"/>
        <path d="M465.396 525.47L483.872 567.446C462.51 558.181 441.356 548.441 420.428 538.233L385.137 458.112L412.916 444.976L430.705 427.934L494.054 488.979C495.166 497.858 498.091 530.246 499.539 558.369L465.396 525.47Z" fill="#00060A"/>
        <path d="M484.136 551.42C484.136 551.42 424.48 526.727 370.201 497.88C335.107 479.082 302.222 458.624 289.21 441.852C272.234 420.041 266.06 393.264 269.754 367.832C270.617 353.137 273.572 338.575 278.809 324.824C280.689 319.792 282.832 314.693 284.843 309.522C291.69 292.348 297.058 274.699 285.45 257.993C269.059 236.138 240.614 236.343 213.522 239.473C212.512 239.605 212.11 238.398 212.915 237.864C234.302 221.773 249.23 210.019 266.389 198.206C283.966 186.123 303.158 176.87 323.024 169.125C335.249 164.357 347.726 160.265 360.4 156.866C393.885 147.942 428.642 143.846 463.268 145.192C464.146 145.265 464.541 146.267 463.941 146.874C436.161 175.181 408.308 203.707 385.232 236.05C366.559 262.192 372.959 279.307 387.682 288.135C397.41 293.972 408.528 294.506 422.118 302.793C440.477 313.984 452.984 333.038 460.328 353.254C469.302 377.955 470.326 403.394 473.603 428.957C475.278 442.05 476.821 455.069 478.167 468.22C480.983 495.868 483.068 523.641 484.136 551.42Z" fill="#FFA439"/>
        <path d="M388.94 171.969C388.94 171.969 313.815 234.784 302.602 240.321C297.218 242.982 290.997 243.396 285.308 241.471C279.619 239.546 274.928 235.439 272.266 230.055C269.605 224.671 269.191 218.45 271.116 212.761C273.041 207.072 277.148 202.381 282.532 199.719C293.745 194.168 388.94 171.969 388.94 171.969Z" fill="#00060A"/>
        <path d="M289.802 232.875C296.375 232.875 301.703 227.547 301.703 220.975C301.703 214.402 296.375 209.074 289.802 209.074C283.23 209.074 277.902 214.402 277.902 220.975C277.902 227.547 283.23 232.875 289.802 232.875Z" fill="white"/>
        <path d="M285.611 226.403C288.144 226.403 290.198 224.349 290.198 221.817C290.198 219.284 288.144 217.23 285.611 217.23C283.079 217.23 281.025 219.284 281.025 221.817C281.025 224.349 283.079 226.403 285.611 226.403Z" fill="#00060A"/>
        <path d="M212.915 237.857C212.11 238.398 212.512 239.605 213.522 239.466C238.215 236.621 265.102 235.97 282.232 254.029C281.335 249.815 279.475 245.865 276.798 242.49C274.12 239.115 270.698 236.405 266.799 234.573C262.367 232.488 256.932 231.281 254.248 227.185C250.291 221.282 254.986 210.282 261.364 201.761C261.364 201.761 261.364 201.688 261.43 201.688C189.677 255.213 221.194 231.647 212.915 237.857Z" fill="#00060A"/>
        <path d="M372.783 446.132C333.271 421.453 325.723 372.17 356.845 348.098C336.38 325.41 309.909 311.673 283.995 309.516C281.998 314.68 279.826 319.792 277.917 324.817C272.705 338.614 269.622 353.123 268.774 367.847C265.051 393.235 271.319 420.005 288.413 441.846C301.549 458.617 334.661 479.119 370.047 497.873C380.668 485.826 387.441 470.445 390.228 453.534C383.206 451.332 377.172 448.882 372.783 446.132Z" fill="#D2D2D2"/>
        <path d="M390.227 453.531C413.977 461.058 449.912 465.6 478.16 468.196C476.821 455.067 475.307 442.026 473.596 428.992C471.554 412.984 468.819 397.073 465.396 381.303C454.425 366.513 443.512 354.167 434.435 348.447C408.279 331.924 376.967 332.604 357.108 348.096C363.252 354.964 368.884 362.622 373.756 371.07C389.335 398.06 394.462 427.617 390.227 453.531Z" fill="#D00A0C"/>
        <path d="M372.929 446.131C377.281 448.881 383.257 451.324 390.228 453.533C394.47 427.619 389.335 398.062 373.756 371.072C369.015 362.86 363.436 355.16 357.108 348.098C325.935 372.396 334.076 421.679 372.929 446.131Z" fill="#898989"/>
        <path d="M527.992 463.555C527.992 463.555 411.863 458.64 379.819 438.452C347.775 418.265 335.568 380.026 352.566 353.043C369.565 326.061 409.252 320.678 441.362 340.755C474.093 361.206 531.218 464.813 527.992 463.555Z" fill="#2F2F2F"/>
        <path d="M474.071 428.626C438.824 424.604 407.87 418.825 398.069 412.776C383.191 403.59 371.342 384.002 380.002 370.536C388.582 357.188 411.293 358.768 426.667 368.269C436.469 374.325 455.157 399.201 474.071 428.626Z" fill="black"/>
    </g>
    <defs>
        <filter id="filter0_d_1352_12057" x="212.487" y="144.941" width="371.026" height="489.113" filterUnits="userSpaceOnUse" color-interpolation-filters="sRGB">
            <feFlood flood-opacity="0" result="BackgroundImageFix"/>
            <feColorMatrix in="SourceAlpha" type="matrix" values="0 0 0 0 0 0 0 0 0 0 0 0 0 0 0 0 0 0 127 0" result="hardAlpha"/>
            <feOffset dx="33" dy="16"/>
            <feGaussianBlur stdDeviation="2.5"/>
            <feComposite in2="hardAlpha" operator="out"/>
            <feColorMatrix type="matrix" values="0 0 0 0 0 0 0 0 0 0 0 0 0 0 0 0 0 0 0.25 0"/>
            <feBlend mode="normal" in2="BackgroundImageFix" result="effect1_dropShadow_1352_12057"/>
            <feBlend mode="normal" in="SourceGraphic" in2="effect1_dropShadow_1352_12057" result="shape"/>
        </filter>
    </defs>
</svg>
