<svg width="1452" height="1452" viewBox="0 0 1452 1452" fill="none" xmlns="http://www.w3.org/2000/svg">
    <rect width="1452" height="1452" fill="#fafafa"/>
    <path d="M736.538 949.617H473.158C431.185 949.617 397.039 915.471 397.039 873.497V578.503C397.026 536.529 431.185 502.383 473.158 502.383H737.849C741.872 502.383 745.522 504.722 747.192 508.384C748.863 512.034 748.259 516.34 745.624 519.385L666.253 611.403C664.597 613.314 663.668 615.748 663.628 618.277C663.588 620.806 664.44 623.268 666.035 625.231L733.441 708.496C742.977 720.281 742.733 737.181 732.837 748.67L666.446 825.792C664.766 827.727 663.834 830.199 663.818 832.761C663.801 835.323 664.701 837.806 666.356 839.762L744.391 932.717C746.961 935.776 747.526 940.056 745.83 943.667C744.134 947.278 740.535 949.617 736.538 949.617Z" fill="#D5DADD"/>
    <path d="M978.842 949.617H800.218L718.379 852.138C708.869 840.803 708.972 824.443 718.623 813.236L786.454 734.431C789.448 730.961 789.525 725.859 786.634 722.286L718.533 638.172C708.985 626.375 709.242 609.462 719.163 597.973L801.619 502.383H978.842C1020.81 502.383 1054.96 536.529 1054.96 578.503V873.485C1054.97 915.471 1020.81 949.617 978.842 949.617Z" fill="#D5DADD"/>
    <path d="M978.842 949.617H800.218L718.379 852.138C708.869 840.803 708.972 824.443 718.623 813.236L786.454 734.43C787.743 732.932 788.531 731.068 788.706 729.1C788.881 727.131 788.435 725.157 787.43 723.455L783.652 717.055L822.425 672.704C826.283 668.293 831.039 664.757 836.373 662.333C841.708 659.908 847.499 658.651 853.359 658.645H853.385C865.234 658.645 876.505 663.747 884.306 672.666L1054.96 867.328V873.497C1054.97 915.47 1020.81 949.617 978.842 949.617Z" fill="#5B738B"/>
    <path d="M614.86 949.617H473.158C431.185 949.617 397.039 915.47 397.039 873.497V871.261C397.039 868.767 397.938 866.364 399.583 864.488L493.798 756.728C497.656 752.317 502.411 748.781 507.746 746.356C513.081 743.931 518.872 742.674 524.732 742.668H524.757C536.607 742.668 547.877 747.77 555.678 756.689L652.335 866.943C665.392 881.838 668.425 902.31 660.251 920.354C652.065 938.41 634.677 949.617 614.86 949.617Z" fill="#8396A8"/>
    <path d="M736.538 949.618H581.42C569.16 949.618 558.403 942.691 553.339 931.523C548.276 920.367 550.139 907.696 558.21 898.468L720.551 712.789C721.684 711.491 723.126 710.499 724.742 709.904C726.359 709.309 728.1 709.13 729.804 709.383C733.261 709.897 736.23 712.134 737.669 715.321C742.656 726.386 740.766 739.469 732.85 748.671L666.459 825.793C664.779 827.727 663.847 830.199 663.83 832.761C663.814 835.323 664.714 837.806 666.369 839.762L744.403 932.718C746.974 935.776 747.539 940.056 745.843 943.667C744.146 947.279 740.535 949.618 736.538 949.618Z" fill="#5B738B"/>
    <path d="M616.466 676.495C588.578 676.495 565.895 653.812 565.895 625.924C565.895 598.037 588.578 575.354 616.466 575.354C637.658 575.354 656.769 588.732 664.004 608.639C664.775 610.76 664.827 613.073 664.158 615.219C663.22 618.226 663.631 621.491 665.302 624.151C666.493 626.057 667.029 628.299 666.831 630.538C664.454 656.742 642.799 676.495 616.466 676.495Z" fill="#A9B4BE"/>
</svg>
