<svg width="29" height="45" viewBox="0 0 29 45" fill="none" xmlns="http://www.w3.org/2000/svg">
<path d="M16.8528 28.8731C17.6357 28.8723 18.4186 28.8741 19.2015 28.8786C19.1893 28.8857 19.2015 28.2121 19.2015 28.2121C18.486 28.2064 17.6739 28.2043 16.9874 28.2121C16.6682 28.2158 16.5108 28.325 16.515 28.5398C16.5177 28.6718 16.6035 28.8737 16.8528 28.8731Z" fill="#FFA439"/>
<path d="M23.0601 10.0455C23.0487 10.0506 23.0395 10.0597 23.0344 10.0711C22.9845 10.1739 22.8599 10.234 22.798 10.2926C21.8813 11.1593 21.1738 12.0581 20.2716 12.7699C19.5212 13.3632 18.6488 13.6585 17.6544 13.6558C16.0533 13.6515 14.4522 13.6504 12.851 13.6526C11.5645 13.655 9.97572 14.1092 9.6742 15.6981C9.52678 16.4754 9.73262 17.1658 10.2917 17.7693C10.3592 17.8415 10.5361 17.9854 10.8224 18.201C11.2099 18.4921 11.6916 18.6368 12.2673 18.6352C14.8536 18.6298 17.4403 18.6263 20.0272 18.6247C20.7514 18.6242 21.2858 18.6512 21.6305 18.7058C23.6149 19.0212 25.3018 20.3356 26.2851 22.0521C26.7732 22.9051 27.041 23.7606 27.1921 24.7091C27.3192 25.5036 27.2516 26.2683 27.1447 27.0724C26.9638 28.4342 26.1613 28.874 24.8692 28.8772C23.0435 28.882 21.2175 28.8817 19.3912 28.8764C19.0213 28.0554 18.8355 27.7184 18.6595 27.4937C18.1208 26.806 17.6673 26.501 16.7957 26.1464C16.3261 25.9562 15.8911 25.9305 15.383 25.9305C13.0443 25.9299 10.7058 25.9297 8.36761 25.9297C7.31912 25.9297 6.3036 25.6721 5.34276 25.1914C4.38433 24.711 3.5725 24.1051 2.90728 23.3738C2.09626 22.482 1.4581 21.4174 0.992826 20.1799C0.892587 19.9124 0.802534 19.5931 0.722665 19.2218C0.628591 18.7844 0.520043 18.3487 0.47582 17.9137C0.388446 17.0492 0.372364 16.2438 0.427576 15.4975C0.643063 12.5733 2.10644 10.0021 4.45106 8.25674C5.66277 7.35395 7.12374 6.73925 8.63134 6.58759C8.97306 6.55388 9.31639 6.51296 9.66052 6.51135C11.3608 6.50279 12.7591 6.50252 13.8553 6.51055C14.3248 6.51429 14.7671 6.48059 15.182 6.40944C16.4869 6.18635 17.4767 5.08134 18.3113 4.11435C18.3564 4.06192 18.395 4.0111 18.4271 3.96188C18.4334 3.95227 18.4369 3.94115 18.4373 3.9297C18.4377 3.91825 18.435 3.9069 18.4295 3.89686C18.424 3.88681 18.4158 3.87845 18.4059 3.87266C18.396 3.86688 18.3847 3.86387 18.3733 3.86398C17.8329 3.86612 17.2851 3.86104 16.7298 3.84873C15.8936 3.83028 15.1369 3.26453 14.8298 2.49977C14.5854 1.89069 14.7196 1.39717 15.0453 0.857101C15.3878 0.288412 15.8957 0.00460164 16.569 0.00567161C19.3628 0.00888151 22.1569 0.00701093 24.9512 5.61317e-05C25.4658 -0.00154882 25.9121 0.0289439 26.3286 0.394873C26.7376 0.754383 26.9421 1.22758 26.9421 1.81445C26.941 5.2651 26.9413 8.71575 26.9429 12.1664C26.9429 12.7586 26.5119 13.3685 25.9812 13.6365C25.2672 13.9971 24.5859 13.9837 23.9373 13.5964C23.5039 13.3372 23.1871 12.6984 23.1727 12.2266C23.1517 11.5247 23.1491 10.8225 23.1646 10.1201C23.1662 10.0382 23.1314 10.0134 23.0601 10.0455Z" fill="url(#paint0_linear_1449_2966)"/>
<path d="M6.08316 3.68513C6.06577 3.67933 6.04811 3.67767 6.03018 3.68016C6.00302 3.68389 5.97993 3.6785 5.96092 3.66399L5.81993 3.55954C5.79874 3.54421 5.7857 3.52555 5.78081 3.50359C5.74061 3.32701 5.79929 3.1749 5.95684 3.04723C5.97477 3.03273 5.99704 3.02547 6.02367 3.02547C7.45686 3.02299 8.8887 3.02278 10.3192 3.02485C10.6329 3.02547 11.1545 3.01304 11.1414 3.36929C11.1317 3.6155 10.879 3.69384 10.5791 3.69384C8.89386 3.69549 7.41421 3.69549 6.1402 3.69384C6.1201 3.69384 6.10109 3.69093 6.08316 3.68513Z" fill="#FFA439"/>
<path d="M18.5072 15.4876C19.2065 15.4462 19.9065 15.4383 20.6069 15.4639C20.7333 15.4684 21.0022 15.5654 21.1033 15.711C21.218 15.8787 21.2454 16.0878 21.1856 16.3383C21.1193 16.6143 20.9596 16.7561 20.7064 16.7636C19.8923 16.7877 19.0682 16.7967 18.2341 16.7907C18.2103 16.7907 18.1868 16.7829 18.1654 16.768C18.144 16.7532 18.1254 16.7316 18.111 16.705C18.0214 16.5391 17.8836 16.371 17.8624 16.1611C17.8127 15.6602 18.208 15.5056 18.5072 15.4876Z" fill="#FFA439"/>
<path d="M11.8797 27.8968C12.7053 27.9134 12.6754 28.8716 11.8584 28.8771C10.6347 28.8839 9.41076 28.8842 8.18652 28.8781C7.96967 28.8762 7.80405 28.7421 7.79039 28.497C7.77076 28.1456 7.7682 27.8912 8.16859 27.8857C9.40593 27.8684 10.643 27.8721 11.8797 27.8968Z" fill="#FFA439"/>
<path d="M12.7303 34.3718C12.5851 34.7325 12.3414 34.9169 11.9992 34.9249C11.6583 34.9321 11.2351 34.6856 11.1691 34.2573C11.1086 33.8619 11.1313 33.4152 11.4192 33.1502C12.1771 32.4522 13.1192 33.404 12.7303 34.3718Z" fill="#171717"/>
<path d="M9.46278 41.5001C9.46888 42.6007 7.79498 42.5999 7.79117 41.4C7.78405 38.8896 7.78201 36.38 7.78506 33.8712C7.78659 33.1744 8.26496 32.8235 8.89744 32.9284C9.21024 32.9797 9.46202 33.224 9.46125 33.55C9.45464 37.5001 9.45515 40.1501 9.46278 41.5001Z" fill="#171717"/>
<path d="M19.4102 36.4099C19.4783 36.4577 19.5124 36.4391 19.5124 36.3541C19.5129 35.4784 19.5134 34.6052 19.5139 33.7343C19.5139 33.0376 20.0646 32.8416 20.6432 32.93C21.0459 32.9914 21.2148 33.4282 21.2148 33.794C21.2158 36.378 21.2163 38.9618 21.2163 41.5452C21.2163 41.9828 20.8593 42.2291 20.4689 42.2498C19.9546 42.2769 19.7037 42.057 19.5782 41.5508C19.576 41.5416 19.5715 41.5331 19.5651 41.5263C19.5587 41.5194 19.5507 41.5144 19.5418 41.5117C19.533 41.509 19.5236 41.5088 19.5146 41.5111C19.5056 41.5133 19.4974 41.518 19.4907 41.5245C18.4606 42.5336 16.7877 42.5272 15.6894 41.7732C15.2376 41.4629 14.8731 41.0516 14.5958 40.5394C14.3346 40.0564 14.1918 39.5513 14.1675 39.0242C14.0645 36.771 16.2664 34.8318 18.4118 35.7771C18.7418 35.9221 19.0926 36.1883 19.4102 36.4099ZM17.9022 40.6956C18.8804 40.5322 19.4853 39.9233 19.4551 38.868C19.4117 37.36 17.5653 36.5869 16.4477 37.4947C15.8033 38.0191 15.6678 39.0736 16.0713 39.7902C16.4717 40.5011 17.1215 40.8255 17.9022 40.6956Z" fill="#171717"/>
<path d="M4.21016 35.1361C3.66073 34.8677 2.78252 34.7442 2.30167 35.225C1.92967 35.5964 1.94905 36.1087 2.3382 36.4574C2.44854 36.556 2.704 36.6635 3.10458 36.78C3.58369 36.9196 4.06156 37.0654 4.53818 37.2175C5.21734 37.4355 5.81225 37.7834 6.17158 38.4467C6.52942 39.1078 6.50631 39.9144 6.24091 40.6179C5.97849 41.3143 5.32096 41.8636 4.65597 42.0879C3.47509 42.4866 2.34516 42.3563 1.26617 41.6968C0.81514 41.4206 0.428225 41.1278 0.454318 40.5132C0.461276 40.3569 0.507745 40.2187 0.593726 40.0985C1.14689 39.3273 2.05938 40.3204 2.65653 40.5408C3.1585 40.726 3.65426 40.737 4.14381 40.5738C4.74618 40.3724 4.9743 39.506 4.42188 39.0598C4.27875 38.9441 4.00291 38.8339 3.79193 38.7694C3.27455 38.612 2.75842 38.4512 2.24352 38.287C1.63669 38.0934 0.857635 37.574 0.594473 36.9185C0.0920036 35.6649 0.578816 34.3964 1.63221 33.6905C2.65579 33.0051 4.23402 33.1703 5.27101 33.7928C5.81747 34.1209 6.10299 34.7717 5.53417 35.2888C5.08016 35.7019 4.64181 35.3478 4.21016 35.1361Z" fill="#171717"/>
<path d="M12.8194 41.4686C12.8209 42.6268 11.1684 42.5905 11.1608 41.3868C11.1507 39.7017 11.1444 38.0162 11.1418 36.3304C11.1413 35.675 11.4275 35.32 12.0004 35.2655C12.4532 35.2226 12.8217 35.5495 12.8209 36.0514C12.8174 37.8582 12.8169 39.6639 12.8194 41.4686Z" fill="#171717"/>
<path d="M25.2358 39.5642C25.409 39.0615 25.6611 38.4982 25.8251 38.0605C26.0885 37.3576 26.3432 36.6511 26.5891 35.941C26.635 35.809 26.7422 35.6597 26.9108 35.4933C27.3717 35.0381 28.2363 35.3052 28.268 35.9959C28.2763 36.1723 28.2051 36.4433 28.0546 36.8089C27.4746 38.2169 26.9247 39.639 26.3393 41.0437C25.8924 42.1163 25.4794 43.2664 25.0595 44.1434C24.8414 44.5978 24.4563 44.8042 23.908 44.9581C23.5229 45.0655 22.9684 44.9698 22.6784 44.6627C22.4611 44.433 22.2933 43.9803 22.4294 43.6541C22.6777 43.0592 23.2577 43.1532 23.7534 43.1607C24.007 43.1648 24.2576 42.4509 24.2985 42.2462C24.3264 42.1052 24.3156 41.9674 24.2661 41.8326C24.0016 41.1131 23.7381 40.393 23.4757 39.6723C23.161 38.8086 22.6351 37.4813 22.2709 36.3571C22.1812 36.0813 22.2199 35.8348 22.3869 35.6173C22.9011 34.9458 23.7402 35.3036 23.973 36.0409C24.3457 37.2225 24.7896 38.375 25.1446 39.5625C25.1734 39.6579 25.2038 39.6585 25.2358 39.5642Z" fill="#171717"/>
<defs>
<linearGradient id="paint0_linear_1449_2966" x1="0.407482" y1="0.00888335" x2="24.4753" y2="-2.15188" gradientUnits="userSpaceOnUse">
<stop stop-color="#FFA439"/>
<stop offset="1" stop-color="#FE7511"/>
</linearGradient>
</defs>
</svg>
