<svg width="50" height="50" viewBox="0 0 50 50" fill="none" xmlns="http://www.w3.org/2000/svg">
    <path d="M27.6142 32.0838C28.4841 32.0829 29.354 32.085 30.2238 32.09C30.2103 32.0979 30.2238 31.3494 30.2238 31.3494C29.4289 31.343 28.5266 31.3408 27.7638 31.3494C27.4092 31.3535 27.2342 31.4749 27.2389 31.7135C27.2419 31.8602 27.3372 32.0845 27.6142 32.0838Z" fill="#FE7511"/>
    <path d="M34.5112 11.1616C34.4985 11.1673 34.4884 11.1775 34.4826 11.1902C34.4272 11.3043 34.2888 11.3712 34.22 11.4362C33.2015 12.3992 32.4153 13.3979 31.4129 14.1887C30.5791 14.848 29.6098 15.1761 28.5049 15.1731C26.7259 15.1684 24.9469 15.1672 23.1678 15.1695C21.7384 15.1722 19.973 15.6769 19.638 17.4423C19.4742 18.306 19.7029 19.0731 20.3241 19.7437C20.3992 19.8239 20.5957 19.9838 20.9138 20.2234C21.3444 20.5467 21.8795 20.7075 22.5192 20.7057C25.393 20.6998 28.267 20.6959 31.1414 20.6942C31.946 20.6936 32.5398 20.7236 32.9228 20.7842C35.1277 21.1346 37.002 22.5951 38.0946 24.5023C38.6369 25.4502 38.9344 26.4007 39.1024 27.4546C39.2435 28.3373 39.1685 29.187 39.0497 30.0805C38.8487 31.5936 37.957 32.0822 36.5214 32.0858C34.4928 32.0911 32.4639 32.0908 30.4347 32.0849C30.0237 31.1727 29.8173 30.7982 29.6217 30.5486C29.0231 29.7844 28.5192 29.4456 27.5508 29.0515C27.0291 28.8402 26.5457 28.8116 25.9811 28.8116C23.3825 28.8111 20.7842 28.8108 18.1863 28.8108C17.0213 28.8108 15.8929 28.5245 14.8253 27.9904C13.7604 27.4567 12.8584 26.7835 12.1192 25.9709C11.2181 24.98 10.509 23.7971 9.99206 22.4221C9.88068 22.1249 9.78062 21.7701 9.69188 21.3575C9.58735 20.8716 9.46674 20.3874 9.4176 19.9042C9.32052 18.9436 9.30265 18.0487 9.364 17.2194C9.60343 13.9703 11.2294 11.1135 13.8345 9.17415C15.1809 8.17106 16.8042 7.48806 18.4793 7.31954C18.859 7.28209 19.2405 7.23662 19.6228 7.23483C21.5121 7.22532 23.0657 7.22502 24.2837 7.23394C24.8054 7.2381 25.2968 7.20065 25.7578 7.1216C27.2077 6.87372 28.3075 5.64593 29.2348 4.5715C29.2849 4.51325 29.3278 4.45678 29.3635 4.40209C29.3704 4.39141 29.3744 4.37905 29.3748 4.36633C29.3753 4.35361 29.3723 4.341 29.3662 4.32984C29.36 4.31868 29.351 4.30939 29.34 4.30296C29.3289 4.29653 29.3164 4.29319 29.3036 4.29331C28.7033 4.29569 28.0946 4.29004 27.4775 4.27637C26.5484 4.25586 25.7077 3.62726 25.3665 2.77752C25.0949 2.10077 25.2441 1.55241 25.6059 0.952334C25.9865 0.320458 26.5508 0.00511293 27.2989 0.00630179C30.4031 0.00986835 33.5077 0.00778992 36.6125 6.23685e-05C37.1843 -0.00172091 37.6801 0.0321599 38.1429 0.438748C38.5973 0.838203 38.8245 1.36397 38.8245 2.01606C38.8233 5.85012 38.8236 9.68417 38.8254 13.5182C38.8254 14.1763 38.3466 14.8539 37.7569 15.1517C36.9636 15.5524 36.2066 15.5375 35.4859 15.1071C35.0044 14.8191 34.6524 14.1094 34.6363 13.5851C34.6131 12.8052 34.6101 12.025 34.6274 11.2445C34.6292 11.1536 34.5904 11.126 34.5112 11.1616Z" fill="url(#paint0_linear_1165_1164)"/>
    <path d="M15.6481 4.09361C15.6288 4.08717 15.6092 4.08532 15.5893 4.08809C15.5591 4.09223 15.5334 4.08624 15.5123 4.07013L15.3557 3.95407C15.3321 3.93703 15.3176 3.91631 15.3122 3.8919C15.2675 3.6957 15.3327 3.52669 15.5078 3.38484C15.5277 3.36872 15.5525 3.36066 15.582 3.36066C17.1745 3.3579 18.7654 3.35767 20.3548 3.35997C20.7034 3.36066 21.283 3.34684 21.2685 3.74268C21.2576 4.01624 20.9769 4.10329 20.6437 4.10329C18.7711 4.10513 17.1271 4.10513 15.7115 4.10329C15.6892 4.10329 15.6681 4.10006 15.6481 4.09361Z" fill="#FE7511"/>
    <path d="M29.4526 17.2067C30.2297 17.1607 31.0073 17.1519 31.7856 17.1803C31.926 17.1854 32.2249 17.2932 32.3372 17.4549C32.4646 17.6413 32.4951 17.8736 32.4286 18.1519C32.355 18.4586 32.1775 18.6162 31.8961 18.6245C30.9916 18.6513 30.076 18.6613 29.1492 18.6546C29.1227 18.6546 29.0966 18.646 29.0728 18.6294C29.0491 18.6129 29.0284 18.5889 29.0124 18.5593C28.9128 18.375 28.7597 18.1883 28.7362 17.9551C28.6809 17.3985 29.1202 17.2267 29.4526 17.2067Z" fill="#FE7511"/>
    <path d="M22.0885 30.9939C23.0058 31.0124 22.9726 32.077 22.0648 32.0832C20.7052 32.0907 19.3452 32.0911 17.9849 32.0842C17.744 32.0822 17.56 31.9332 17.5448 31.6608C17.523 31.2703 17.5201 30.9877 17.965 30.9816C19.3398 30.9624 20.7143 30.9665 22.0885 30.9939Z" fill="#FE7511"/>
    <path d="M23.0335 38.1914C22.8721 38.5923 22.6013 38.7971 22.2211 38.806C21.8424 38.814 21.3721 38.5401 21.2988 38.0642C21.2316 37.6248 21.2568 37.1285 21.5767 36.8341C22.4189 36.0585 23.4656 37.1161 23.0335 38.1914Z" fill="#171717"/>
    <path d="M19.403 46.1118C19.4098 47.3346 17.5499 47.3338 17.5457 46.0005C17.5377 43.2112 17.5355 40.4228 17.5389 37.6353C17.5406 36.8609 18.0721 36.4711 18.7748 36.5877C19.1224 36.6447 19.4022 36.9161 19.4013 37.2784C19.394 41.6673 19.3945 44.6118 19.403 46.1118Z" fill="#171717"/>
    <path d="M30.4559 40.456C30.5317 40.5091 30.5695 40.4885 30.5695 40.394C30.5701 39.421 30.5707 38.4507 30.5713 37.483C30.5713 36.709 31.1831 36.4912 31.826 36.5895C32.2734 36.6577 32.4611 37.143 32.4611 37.5495C32.4622 40.4206 32.4628 43.2914 32.4628 46.1619C32.4628 46.6481 32.0661 46.9218 31.6323 46.9448C31.0609 46.9749 30.7821 46.7305 30.6427 46.1681C30.6402 46.1579 30.6352 46.1485 30.6281 46.1408C30.621 46.1332 30.6121 46.1276 30.6023 46.1247C30.5924 46.1217 30.582 46.1215 30.572 46.124C30.562 46.1265 30.5529 46.1316 30.5454 46.1389C29.4009 47.2601 27.5421 47.253 26.3218 46.4152C25.8198 46.0704 25.4148 45.6135 25.1067 45.0443C24.8164 44.5076 24.6578 43.9465 24.6308 43.3608C24.5164 40.8572 26.9629 38.7025 29.3467 39.7528C29.7133 39.914 30.1031 40.2098 30.4559 40.456ZM28.7804 45.2179C29.8673 45.0363 30.5394 44.3597 30.5059 43.1872C30.4577 41.5116 28.4061 40.6526 27.1643 41.6613C26.4483 42.244 26.2977 43.4157 26.7461 44.2118C27.191 45.0018 27.913 45.3622 28.7804 45.2179Z" fill="#171717"/>
    <path d="M13.5669 39.0404C12.9564 38.7423 11.9806 38.605 11.4463 39.1392C11.033 39.5519 11.0545 40.1212 11.4869 40.5085C11.6095 40.6181 11.8934 40.7376 12.3384 40.867C12.8708 41.0221 13.4018 41.1841 13.9313 41.3532C14.686 41.5954 15.347 41.9818 15.7462 42.7189C16.1438 43.4534 16.1182 44.3496 15.8233 45.1313C15.5317 45.9052 14.8011 46.5155 14.0622 46.7647C12.7501 47.2077 11.4947 47.0628 10.2958 46.3301C9.79463 46.0232 9.36472 45.6979 9.39371 45.015C9.40144 44.8413 9.45308 44.6877 9.54861 44.5542C10.1632 43.6974 11.1771 44.8008 11.8406 45.0456C12.3984 45.2514 12.9492 45.2637 13.4932 45.0824C14.1624 44.8585 14.4159 43.8958 13.8021 43.4001C13.6431 43.2715 13.3366 43.1491 13.1022 43.0774C12.5273 42.9025 11.9538 42.7239 11.3817 42.5414C10.7075 42.3263 9.84184 41.7492 9.54944 41.0209C8.99114 39.628 9.53204 38.2185 10.7025 37.4342C11.8398 36.6726 13.5934 36.8562 14.7456 37.5479C15.3528 37.9125 15.67 38.6356 15.038 39.2101C14.5335 39.6691 14.0465 39.2756 13.5669 39.0404Z" fill="#171717"/>
    <path d="M23.1325 46.0752C23.1342 47.3621 21.2981 47.3218 21.2897 45.9844C21.2784 44.112 21.2714 42.2392 21.2686 40.3662C21.268 39.6379 21.586 39.2434 22.2225 39.1829C22.7256 39.1352 23.1351 39.4984 23.1342 40.0561C23.1303 42.0637 23.1297 44.0701 23.1325 46.0752Z" fill="#171717"/>
    <path d="M36.9286 43.9592C37.1211 43.4007 37.4012 42.7748 37.5834 42.2884C37.8761 41.5074 38.1591 40.7225 38.4323 39.9335C38.4833 39.7868 38.6024 39.6209 38.7898 39.436C39.3019 38.9303 40.2625 39.2271 40.2977 39.9945C40.3069 40.1905 40.2278 40.4916 40.0606 40.8978C39.4161 42.4623 38.8052 44.0424 38.1548 45.6031C37.6581 46.795 37.1993 48.0728 36.7327 49.0473C36.4904 49.5521 36.0625 49.7814 35.4533 49.9525C35.0254 50.0718 34.4093 49.9654 34.0871 49.6242C33.8456 49.3691 33.6592 48.8661 33.8104 48.5036C34.0862 47.8425 34.7307 47.947 35.2814 47.9553C35.5633 47.96 35.8417 47.1666 35.8872 46.9392C35.9181 46.7826 35.9061 46.6295 35.8511 46.4797C35.5573 45.6802 35.2645 44.8801 34.973 44.0794C34.6233 43.1196 34.039 41.6449 33.6343 40.3958C33.5346 40.0894 33.5776 39.8154 33.7632 39.5738C34.3346 38.8276 35.2668 39.2252 35.5255 40.0444C35.9396 41.3574 36.4328 42.6379 36.8272 43.9573C36.8593 44.0634 36.8931 44.064 36.9286 43.9592Z" fill="#171717"/>
    <defs>
        <linearGradient id="paint0_linear_1165_1164" x1="9.34167" y1="0.00987039" x2="36.0837" y2="-2.39098" gradientUnits="userSpaceOnUse">
            <stop stop-color="#FFA439"/>
            <stop offset="1" stop-color="#FE7511"/>
        </linearGradient>
    </defs>
</svg>
