<svg width="20" height="20" viewBox="0 0 20 20" fill="none" xmlns="http://www.w3.org/2000/svg">
    <path d="M4.5014 3C4.63401 3 4.76118 3.05268 4.85495 3.14645C4.94872 3.24021 5.0014 3.36739 5.0014 3.5V16.5C5.0014 16.6326 4.94872 16.7598 4.85495 16.8536C4.76118 16.9473 4.63401 17 4.5014 17C4.36879 17 4.24161 16.9473 4.14784 16.8536C4.05408 16.7598 4.0014 16.6326 4.0014 16.5V3.5C4.0014 3.36739 4.05408 3.24021 4.14784 3.14645C4.24161 3.05268 4.36879 3 4.5014 3ZM9.9484 3.214C9.76025 3.08762 9.54129 3.01477 9.31493 3.00325C9.08857 2.99173 8.86334 3.04197 8.66334 3.1486C8.46334 3.25523 8.29609 3.41423 8.17949 3.60859C8.06289 3.80295 8.00133 4.02535 8.0014 4.252V15.752C8.00138 15.9793 8.06336 16.2024 8.18068 16.3971C8.298 16.5919 8.4662 16.7509 8.66719 16.8572C8.86817 16.9634 9.09433 17.0129 9.32132 17.0001C9.54831 16.9874 9.76754 16.913 9.9554 16.785L18.4544 10.992C18.6231 10.8769 18.7611 10.7222 18.8562 10.5415C18.9513 10.3607 19.0007 10.1594 19 9.95514C18.9993 9.75089 18.9486 9.54992 18.8522 9.36982C18.7559 9.18971 18.6169 9.03596 18.4474 8.922L9.9484 3.214Z" fill="#17171740"/>
</svg>
