<svg width="20" height="20" viewBox="0 0 20 20" fill="none" xmlns="http://www.w3.org/2000/svg">
    <path d="M15.4986 3C15.366 3 15.2388 3.05268 15.145 3.14645C15.0513 3.24021 14.9986 3.36739 14.9986 3.5V16.5C14.9986 16.6326 15.0513 16.7598 15.145 16.8536C15.2388 16.9473 15.366 17 15.4986 17C15.6312 17 15.7584 16.9473 15.8522 16.8536C15.9459 16.7598 15.9986 16.6326 15.9986 16.5V3.5C15.9986 3.36739 15.9459 3.24021 15.8522 3.14645C15.7584 3.05268 15.6312 3 15.4986 3ZM10.0516 3.214C10.2397 3.08762 10.4587 3.01477 10.6851 3.00325C10.9114 2.99173 11.1367 3.04197 11.3367 3.1486C11.5367 3.25523 11.7039 3.41423 11.8205 3.60859C11.9371 3.80295 11.9987 4.02535 11.9986 4.252V15.752C11.9986 15.9793 11.9366 16.2024 11.8193 16.3971C11.702 16.5919 11.5338 16.7509 11.3328 16.8572C11.1318 16.9634 10.9057 17.0129 10.6787 17.0001C10.4517 16.9874 10.2325 16.913 10.0446 16.785L1.5456 10.992C1.37687 10.8769 1.23891 10.7222 1.1438 10.5415C1.04869 10.3607 0.999316 10.1594 1.00001 9.95514C1.0007 9.75089 1.05143 9.54992 1.14776 9.36982C1.2441 9.18971 1.3831 9.03596 1.5526 8.922L10.0516 3.214Z" fill="#17171740"/>
</svg>
